/* XPM */
static char *result[] = {
/* columns rows colors chars-per-pixel */
"16 16 177 2 ",
"   c #B66D5D",
".  c #AF5948",
"X  c #A12924",
"o  c #B62C29",
"O  c #B62D29",
"+  c #B72C29",
"@  c #B7302E",
"#  c #AA4238",
"$  c #A74439",
"%  c #B26251",
"&  c #C55047",
"*  c #DA755F",
"=  c #AB3B2F",
"-  c #D05F4D",
";  c #D2614F",
":  c #D36351",
">  c #D16451",
",  c #CD6350",
"<  c #CB6250",
"1  c #C96150",
"2  c #C86050",
"3  c #C96655",
"4  c #B2614D",
"5  c #C1372F",
"6  c #DB856B",
"7  c #C7413D",
"8  c #DE6755",
"9  c #AE5442",
"0  c #C86954",
"q  c #C6614D",
"w  c #C8634E",
"e  c #C36549",
"r  c #9C563A",
"t  c #6A3F2B",
"y  c #462B21",
"u  c #31201A",
"i  c #2C1C19",
"p  c #2B1C1A",
"a  c #331514",
"s  c #B32523",
"d  c #DF7C66",
"f  c #C6423C",
"g  c #D86B5C",
"h  c #BB7E6D",
"j  c #C44239",
"k  c #C44A3C",
"l  c #CA4E3F",
"z  c #C65A3D",
"x  c #984F32",
"c  c #5D3523",
"v  c #34211A",
"b  c #1A1714",
"n  c #131313",
"m  c #111313",
"M  c #1C1111",
"N  c #AF2724",
"B  c #C6413A",
"V  c #C46864",
"C  c #B9A9A8",
"Z  c #A74039",
"A  c #E89C7A",
"S  c #F7745B",
"D  c #EE7552",
"F  c #B35F3F",
"G  c #643E2A",
"H  c #332119",
"J  c #1B1714",
"K  c #141313",
"L  c #121313",
"P  c #1D1111",
"I  c #C7423B",
"U  c #B05552",
"Y  c #958888",
"T  c #A54038",
"R  c #F09A78",
"E  c #FF624B",
"W  c #F56947",
"Q  c #B85839",
"!  c #653D2A",
"~  c #C7433C",
"^  c #C45D52",
"/  c #95655A",
"(  c #B3473B",
")  c #EF9A78",
"_  c #FF634B",
"`  c #C6433D",
"'  c #DD6856",
"]  c #BE6753",
"[  c #BB4C3E",
"{  c #E29777",
"}  c #F1765B",
"|  c #E97652",
" . c #B15F3F",
".. c #633D2B",
"X. c #342019",
"o. c #1B1713",
"O. c #DF7D66",
"+. c #C6433C",
"@. c #DC6856",
"#. c #BF6954",
"$. c #CB5647",
"%. c #C4624E",
"&. c #CA6650",
"*. c #C46A49",
"=. c #945C3E",
"-. c #573B2A",
";. c #30231B",
":. c #DF7D65",
">. c #BF6A53",
",. c #EC4E44",
"<. c #EB3734",
"1. c #EC3C35",
"2. c #CC533C",
"3. c #87644C",
"4. c #554637",
"5. c #2E2620",
"6. c #BD6853",
"7. c #CA3D35",
"8. c #C23B32",
"9. c #C84135",
"0. c #C25036",
"q. c #88442B",
"w. c #4F3120",
"e. c #2F231B",
"r. c #C7423C",
"t. c #D46D63",
"y. c #BD9085",
"u. c #B3463C",
"i. c #E49A7A",
"p. c #F4765B",
"a. c #EC7752",
"s. c #AF5939",
"d. c #613825",
"f. c #C7413B",
"g. c #BC605E",
"h. c #AEA1A1",
"j. c #A7423A",
"k. c #F09A79",
"l. c #FF624C",
"z. c #B95839",
"x. c #663D2A",
"c. c #C8423C",
"v. c #B25551",
"b. c #8E7D7B",
"n. c #A43A33",
"m. c #E09373",
"M. c #EC775C",
"N. c #E47752",
"B. c #AD603F",
"V. c #623D29",
"C. c #D16354",
"Z. c #A66655",
"A. c #CE5C4E",
"S. c #CB6654",
"D. c #D06B54",
"F. c #C96E4B",
"G. c #995B3A",
"H. c #5F3B27",
"J. c #35221A",
"K. c #DF7E66",
"L. c #AF3934",
"P. c #C45244",
"I. c #B05947",
"U. c #CF7862",
"Y. c #CF725E",
"T. c #D1735D",
"R. c #CB7553",
"E. c #9C6041",
"W. c #63422F",
"Q. c #382A21",
"!. c #201D19",
"~. c #1A1918",
"^. c #1D1E1D",
"/. c #261B1B",
"(. c #9E2422",
"). c #C3604F",
"_. c white",
/* pixels */
"  . X o O O o o o o + + @ # $ % ",
"& * = - ; ; : > , < 1 2 3 4 5 6 ",
"7 8 9 0 q w e r t y u i p a s d ",
"f g h j k l z x c v b n m M N d ",
"B V C Z A S D F G H J K L P N d ",
"I U Y T R E W Q ! H J K L P N d ",
"~ ^ / ( ) _ W Q ! H J K L P N d ",
"` ' ] [ { } |  ...X.o.K L P N O.",
"+.@.#.$.%.&.*.=.-.;.o.K L P N :.",
"+.@.>.,.<.1.2.3.4.5.b K L P N :.",
"~ @.6.7.8.9.0.q.w.e.J K L P N :.",
"r.t.y.u.i.p.a.s.d.H J K L P N :.",
"f.g.h.j.k.l.W z.x.H J K L P N :.",
"c.v.b.n.m.M.N.B.V.H J K L P N :.",
"r.C.Z.A.S.D.F.G.H.J.J K L P N K.",
"L.P.I.U.Y.T.R.E.W.Q.!.~.^./.(.)."
};
