/* XPM */
static char *result[] = {
/* columns rows colors chars-per-pixel */
"32 32 190 2 ",
"   c #141313",
".  c #1B1211",
"X  c #1E1815",
"o  c #2D0F0E",
"O  c #370C0C",
"+  c #30110E",
"@  c #2E0F10",
"#  c #261E1B",
"$  c #2D1E19",
"%  c #391713",
"&  c #22211E",
"*  c #2B231D",
"=  c #37251A",
"-  c #3C241A",
";  c #2C2C2A",
":  c #342C23",
">  c #3E2D22",
",  c #30302E",
"<  c #781A18",
"1  c #462B1C",
"2  c #4C2D1D",
"3  c #572A1A",
"4  c #6B311F",
"5  c #79321B",
"6  c #5F2F2A",
"7  c #423326",
"8  c #4E3222",
"9  c #453B2D",
"0  c #553525",
"q  c #543B2B",
"w  c #792921",
"e  c #693C25",
"r  c #544738",
"t  c #674732",
"y  c #754B34",
"u  c #734C35",
"i  c #7A4933",
"p  c #6F5B4C",
"a  c #75635F",
"s  c #7C635F",
"d  c #736564",
"f  c #940B0A",
"g  c #93110D",
"h  c #851110",
"j  c #8B1715",
"k  c #8F1912",
"l  c #951814",
"z  c #A90F10",
"x  c #A01E1D",
"c  c #BD1718",
"v  c #BC181A",
"b  c #93261D",
"n  c #AA221F",
"m  c #9E2E25",
"M  c #853A24",
"N  c #9E3026",
"B  c #9C392D",
"V  c #9C3731",
"C  c #9B3831",
"Z  c #A42524",
"A  c #AA2626",
"S  c #A02E27",
"D  c #B32828",
"F  c #A33F31",
"G  c #C41B1B",
"H  c #C6201C",
"J  c #CE201F",
"K  c #CE2222",
"L  c #D12121",
"P  c #C8352B",
"I  c #D23827",
"U  c #CA3732",
"Y  c #CB3B33",
"T  c #DA3A35",
"R  c #E62C2B",
"E  c #EE2F2E",
"W  c #ED312F",
"Q  c #ED3734",
"!  c #EE3D36",
"~  c #95472C",
"^  c #854836",
"/  c #84573B",
"(  c #985737",
")  c #A5432C",
"_  c #BD4229",
"`  c #A44435",
"'  c #AA4A33",
"]  c #A94538",
"[  c #A44A3B",
"{  c #AC4B3B",
"}  c #B14C3A",
"|  c #A55035",
" . c #AC5835",
".. c #B65436",
"X. c #B2593A",
"o. c #CC4238",
"O. c #DF443F",
"+. c #CB5F3C",
"@. c #EA4B37",
"#. c #E2433D",
"$. c #CC623F",
"%. c #9A5645",
"&. c #965D40",
"*. c #A44D41",
"=. c #AD5744",
"-. c #A75B49",
";. c #A95A48",
":. c #B85A48",
">. c #9A6242",
",. c #866C58",
"<. c #977459",
"1. c #A96745",
"2. c #B56647",
"3. c #B16A53",
"4. c #B56957",
"5. c #B3665A",
"6. c #BC7556",
"7. c #836C69",
"8. c #8A7978",
"9. c #8A7D7D",
"0. c #9B7570",
"q. c #A57B66",
"w. c #BF7F65",
"e. c #CD4B41",
"r. c #ED4D43",
"t. c #FE5D4A",
"y. c #EF5F53",
"u. c #F05F54",
"i. c #C6714D",
"p. c #C67752",
"a. c #EE6A45",
"s. c #EF6E48",
"d. c #FD644C",
"f. c #FE6C4C",
"g. c #E56152",
"h. c #EF6052",
"j. c #E7795D",
"k. c #C57F64",
"l. c #D97961",
"z. c #D97862",
"x. c #E57461",
"c. c #BF8468",
"v. c #B9917B",
"b. c #D8875D",
"n. c #E7865D",
"m. c #C28467",
"M. c #C28469",
"N. c #C2896C",
"B. c #CC957A",
"V. c #DD9E7D",
"C. c #EC856E",
"Z. c #EB8A69",
"A. c #FA8267",
"S. c #FB8468",
"D. c #F7896A",
"F. c #F2886F",
"G. c #FB896C",
"H. c #EA966B",
"J. c #F5946D",
"K. c #EC8D71",
"L. c #F18870",
"P. c #EA977A",
"I. c #EA9979",
"U. c #F79474",
"Y. c #F29876",
"T. c #96888C",
"R. c #9B9E9E",
"E. c #A59292",
"W. c #B99F96",
"Q. c #B9A19A",
"!. c #AFACAC",
"~. c #AFB1B2",
"^. c #C69F87",
"/. c #DD9E80",
"(. c #D3A486",
"). c #DBA382",
"_. c #CEA994",
"`. c #E7A582",
"'. c #E1A988",
"]. c #F5A987",
"[. c #F2A988",
"{. c #E1B48E",
"}. c #F1B48F",
"|. c #E9CAA0",
" X c #EDD0A6",
".X c #F1D4A5",
"XX c #C3C5C7",
"oX c #DBDBDA",
"OX c #EAEEEE",
"+X c #F5F9F9",
/* pixels */
"_.*.B V B C V V B B V V V V V V V V V V B V V V V V N V V V V 5.",
"5.;.k.4.f z c c c c c c c c G G c c c c c c c c v c :.B l 6.k.*.",
"5.e.C.{.k Y y.y.y.y.y.y.y.u.y.u.y.y.y.y.h.y.y.y.y.y.}.4.g y.[.c.",
"5.K r.'.k =.k.k.k.k.k.k.k.M.M.M.m.m.m.k.m.c.c.c.c.M.N.C f R L.c.",
"5.K r.'.k m F C F F F F ' ' ~ M 4 3 1 % O + o o @ @ @ O g R L.k.",
"5.K r.'.b ).I.K.K.K.K.K.Z.b.2.&.y q > * X .             h R L.M.",
"5.K r.'.b I.r.v G G v H I _ ) M 4 3 - $ X X           . h R L.M.",
"5.K @.^.0.E.P k :.2.2.2.$.X.>.i e 1 - $ X             . h R L.M.",
"5.K T Q.+X!.A m .X].G.G.D.n.i. .u 8 - $ #             . h R x.N.",
"5.K T 8.oXT.Z S .Xj.t.d.f.a.+.' i 8 - $ .             . h R L.N.",
"5.K T s R.9.Z m .XS.t.d.f.a.+.| i 8 - $ X               h R L.k.",
"5.K T 7.XX9.Z m .XS.t.d.f.a.+.| i 8 - $ X . .           h R L.M.",
"5.K r.s d p D m .XS.t.d.f.s.+.| i 8 - * X             . h R L.M.",
"5.K r.(.w B.P m .XS.t.d.f.a.+.| i 8 - $ X             . h R L.M.",
"5.K r.'.m /.Y m .XS.t.d.f.a.$.| i 8 - $ X             . h R L.M.",
"5.K r.'.j /.Y m |.[.Y.Y.J.n.p.>.u 8 1 $ X             . h R L.M.",
"5.K r.'.b /.Y k ` [ ' '  . .( y e 1 : $ #             . < R j.m.",
"5.K r.'.b /.g.z.l.l.l.j.b.b.1.u t 7 : # X             . h R D.m.",
"5.K r.'.b V.r.Q Q Q Q @.@. .c.p p q : # X             . h R F.M.",
"5.K r.).b V.r.E W W E W @. .<.p r 9 : # X             . h R F.M.",
"5.K r.).b V.O.L J K J K I o.M 5 0 7 : # .             . h R F.M.",
"5.K r.{.m /.U g ] { { } .. .~ 5 3 1 = $ X .           . h R F.m.",
"4.L r.(.^ B.U m  X].U.U.J.n.6.~ e 8 - $ X X           . h R F.M.",
"5.L #.W.oXW.D N .XA.t.d.f.a.+.| ^ 8 - $ X             . h R F.m.",
"5.K T T.OXR.D S .XA.t.d.f.s.$.| i 8 - $ X .           . h R x.N.",
"4.K ! d ~.9.Z S .XS.t.d.f.a.$.| i 8 - $ X             . h R F.M.",
"5.K T s ~.9.Z S .XG.d.f.f.s.$.| i 8 - $ X               h R F.M.",
"5.K O.,.R.a n m {.`.I.I.H.b.6.>.u 8 - $ X X             h R F.M.",
"5.K r.v.6 q.Y m ` ` ` } .. .( i e 2 - $ X             . h R F.M.",
"5.K r.'.m /.y.x.x.x.x.x.j.i.2.( t q 1 $ X             . h R F.M.",
"*.K r.).b /.P.C.C.C.L.Z.n.b.3.&.y 0 > * X             . h R C.w.",
"%.x S *.j *.-.%.-.-.-.;.2.X.( / t q 7 : & & & & & , ; # < A ] C "
};
