/* XPM */
static char *result[] = {
/* columns rows colors chars-per-pixel */
"64 64 246 2 ",
"   c #1A110F",
".  c #1C0F11",
"X  c #141313",
"o  c #1A1613",
"O  c #1A1916",
"+  c #3E0A08",
"@  c #211816",
"#  c #261A16",
"$  c #251C19",
"%  c #291C19",
"&  c #321F19",
"*  c #2A221B",
"=  c #32211A",
"-  c #3A231A",
";  c #382A1D",
":  c #2A2826",
">  c #362B24",
",  c #33322D",
"<  c #3C3428",
"1  c #3C3A32",
"2  c #440C0A",
"3  c #5F0908",
"4  c #57130C",
"5  c #5D1E15",
"6  c #72130D",
"7  c #41261A",
"8  c #47291B",
"9  c #572B1A",
"0  c #4E331E",
"q  c #66291A",
"w  c #79281B",
"e  c #69321B",
"r  c #78341C",
"t  c #4E3227",
"y  c #473628",
"u  c #563725",
"i  c #563B28",
"p  c #5A3B28",
"a  c #483A31",
"s  c #663A27",
"d  c #72342A",
"f  c #3B423B",
"g  c #5A4635",
"h  c #544837",
"j  c #6C442B",
"k  c #7B462E",
"l  c #684A36",
"z  c #774B36",
"x  c #744C37",
"c  c #6D533C",
"v  c #75573C",
"b  c #4B4D45",
"n  c #6F584A",
"m  c #7C5B56",
"M  c #5A605F",
"N  c #78644D",
"B  c #5E6564",
"V  c #716667",
"C  c #707573",
"Z  c #850303",
"A  c #8A0303",
"S  c #850B06",
"D  c #860808",
"F  c #8C0E0A",
"G  c #920702",
"H  c #9E0B0B",
"J  c #86160C",
"K  c #89120C",
"L  c #971508",
"P  c #891914",
"I  c #951811",
"U  c #A51110",
"Y  c #AD1312",
"T  c #AC1714",
"R  c #B41413",
"E  c #B51616",
"W  c #B41619",
"Q  c #BC171A",
"!  c #BC191A",
"~  c #9E250C",
"^  c #85251E",
"/  c #8C261D",
"(  c #89291E",
")  c #96291A",
"_  c #88361B",
"`  c #97351A",
"'  c #AA2913",
"]  c #A6361A",
"[  c #892821",
"{  c #8E2B23",
"}  c #932923",
"|  c #8C3C29",
" . c #9A3828",
".. c #A5372B",
"X. c #B33129",
"o. c #AC3833",
"O. c #B83337",
"+. c #C4191B",
"@. c #C0201E",
"#. c #D02F29",
"$. c #D63D3C",
"%. c #D93F3E",
"&. c #E22D2E",
"*. c #EB2E2D",
"=. c #F12C2F",
"-. c #EB3226",
";. c #E5312E",
":. c #EB312D",
">. c #E62D30",
",. c #EC2F30",
"<. c #F12B33",
"1. c #EB3131",
"2. c #E93732",
"3. c #88472C",
"4. c #96482D",
"5. c #99512E",
"6. c #824630",
"7. c #874735",
"8. c #9A4736",
"9. c #9D4434",
"0. c #9B4C33",
"q. c #865437",
"w. c #985739",
"e. c #A24335",
"r. c #A64A34",
"t. c #A54139",
"y. c #B34A30",
"u. c #AB5638",
"i. c #B05336",
"p. c #BE5A3C",
"a. c #B6623F",
"s. c #D94C39",
"d. c #C7523A",
"f. c #C15C3B",
"g. c #E84937",
"h. c #EA433D",
"j. c #F24333",
"k. c #D5633E",
"l. c #8F5842",
"z. c #AD5B46",
"x. c #B05845",
"c. c #876547",
"v. c #966B4A",
"b. c #947156",
"n. c #AA6A49",
"m. c #BA6747",
"M. c #B5624D",
"N. c #B46853",
"B. c #BB6C54",
"V. c #A67A55",
"C. c #B97654",
"Z. c #8C746B",
"A. c #A07F6A",
"S. c #B97565",
"D. c #B97669",
"F. c #B67869",
"G. c #DD4943",
"H. c #D25643",
"J. c #E44C42",
"K. c #E94B43",
"L. c #EA4A46",
"P. c #E55446",
"I. c #E75747",
"U. c #E95145",
"Y. c #F75F4B",
"T. c #FE5F4C",
"R. c #EB5E53",
"E. c #C36747",
"W. c #D86446",
"Q. c #D37558",
"!. c #E76647",
"~. c #E66842",
"^. c #FC614C",
"/. c #F6684A",
"(. c #F76D49",
"). c #FE6B4B",
"_. c #ED714E",
"`. c #F86A54",
"'. c #F77659",
"]. c #C17B63",
"[. c #EB7562",
"{. c #E97A65",
"}. c #B3845A",
"|. c #988670",
" X c #B98862",
".X c #A88976",
"XX c #AF9177",
"oX c #CD835C",
"OX c #E1895E",
"+X c #C48463",
"@X c #C89668",
"#X c #D8976A",
"$X c #D29676",
"%X c #D49578",
"&X c #D39C7D",
"*X c #EC886C",
"=X c #EF916F",
"-X c #EA8A71",
";X c #FA9778",
":X c #F99979",
">X c #DAA576",
",X c #E9AA7B",
"<X c #F5A87B",
"1X c #7F8586",
"2X c #848789",
"3X c #908F8E",
"4X c #959A9A",
"5X c #B79881",
"6X c #9DA39F",
"7X c #ADAAAC",
"8X c #D39D85",
"9X c #DAAC86",
"0X c #D0AB8E",
"qX c #D7AE8C",
"wX c #DAAC8A",
"eX c #FAA887",
"rX c #E8B988",
"tX c #F6BA8A",
"yX c #E8BD97",
"uX c #F2BC97",
"iX c #DCB7A5",
"pX c #DDBAA4",
"aX c #E1B8A1",
"sX c #F2C18E",
"dX c #E6C39C",
"fX c #F8C89B",
"gX c #F9C99E",
"hX c #DDD5BA",
"jX c #F5CCA6",
"kX c #F9CEA5",
"lX c #F8D3A6",
"zX c #F4D6AB",
"xX c #FBD5AB",
"cX c #F4DBAD",
"vX c #E7D3B3",
"bX c #F4DBB1",
"nX c #FAD8B1",
"mX c #F3E4B1",
"MX c #F9E7B6",
"NX c #FDEBB5",
"BX c #CFCCCB",
"VX c #D6D7D7",
"CX c #DEE3E3",
"ZX c #E7E8E7",
"AX c #F3F4F3",
"SX c #FDFEFE",
/* pixels */
"hXhX8XD.F.F.F.D.D.D.F.D.F.F.D.D.S.D.D.S.D.D.F.F.D.F.D.D.F.F.D.D.D.F.D.D.D.D.D.D.F.F.D.F.D.D.D.D.D.D.D.D.D.D.D.D.F.F.F.F.F.F.0XhX",
"vXS.^ D Z Z 6 A D A D Z A D D Z S Z D D D Z D Z A D D Z D Z Z D D Z D Z Z D D Z Z D D A D Z Z D D D D D A A Z D D D Z Z A Z 6 8.",
"pX{ P  . . . .) Z Z A H H H H H H H H H H H H H H H H H H H H H H H H H H H H H H H H H H H H H H H H H I  .} D A H  . . ...} F ",
"pX{ B.vXzXzXbX&XJ A Y &.&.&.&.&.&.&.&.&.&.&.&.&.&.&.&.&.&.&.&.&.&.&.&.&.&.&.&.&.&.&.&.&.&.&.&.&.&.&.>.>.H.jX&XJ 6 t.jXzXjXjXaX[ ",
"pX} x.-X-XeXMXwXS Z Y &.>.*.*.*.-.*.*.*.*.*.*.*.*.*.>.,.*.*.*.*.*.*.1.:.>.>.,.*.*.*.:.*.*.*.*.=.>.&.<.&.W.nXwXK A ..-X-X8XnXdX) ",
"pX{ Q 1.&.G.cX9XJ Z X.[.[.[.[.[.[.[.[.[.[.[.[.[.[.[.[.[.[.[.[.[.[.[.[.[.[.[.[.[.[.[.[.[.[.[.[.[.{.{.[.[.=XnXwXK A Y &.*.2.kXdX{ ",
"pX{ Q ,.*.K.xX9XJ Z x.lXzXcXcXcXcXcXcXzXcXcXzXcXbXbXbXbXbXbXzXcXcXcXzXcXcXzXcXcXzXzXcXbXzXbXcXbXvXbXbXbXmXbX9XJ A Y -.*.h.gXdX/ ",
"pX{ Q 1.*.K.cX9XS A P e.9.9.9.9.9.9.9.9.9.9.e.9...8.9.9.9.e.e.e.9.8.9.9.9.9.9.9.8.8.8. .8.8.4. .9.8.8.8.8.9.} D G Y &.=.h.kXdX/ ",
"pX{ Q 1.:.U.xXwXJ A A A Z Z Z Z A A Z Z Z Z A A G L ~ J J J 6 w 6 4 4 4 4 4 2 + 2 + 2 + + + + + + 2 + + + + 2 2 6 U >.*.h.fXdX/ ",
"pX} Q 1.:.U.xXwXJ A e.M.M.M.M.M.M.M.M.M.M.M.M.m.m.m.n.a.a.w.5.k j g u 0 ; ; * * O O O X X X X X X X X X X X . . 3 U >.*.h.kXdX/ ",
"pX{ Q 1.:.U.xXqXK S &XMXxXzXlXlXlXcXxXzXlXcXlXlXgXsXrX>X@X}.V.b.N c l h y < > * O o o X X X X X X X X X X X X . 3 Y *.>.h.gXdX[ ",
"iX{ Q :.*.U.xXqXK Z &XzXQ.H.I.I.I.U.P.U.P.I.I.I._.~._.E.a.w.0.3.k s u 0 7 - = % @ o o X X X X X X X X X X X X . 3 Y *.*.h.jXyX} ",
"iX{ ! :.-.K.xXqXK D %XkXL.<.<.*.=.*.*.*.*.*.*.1.g.j.g.d.y.y.4.| r s 9 9 7 - & % @ o o X X X X X X X X X X X X X 3 R ;.>.h.gXdX/ ",
"iX{ ! 1.*.U.xXqXK S &XkXJ.+.Y H U Y U U U U U Y ' ' ] ]  .` _ _ e q 9 8 7 - = % @ o o o X X X X X X X X X X X X 3 Y ;.*.h.gXyX/ ",
"pX{ Q 1.*.U.xX8Xw q XXjXJ.R Z Z F G F F D F A L ~ ' ] ] ` _ r e e 9 8 7 7 - & % O o o X X X X X X X X X X X X   3 Y ;.*.2.gXdX[ ",
"pX{ ! 1.&.K.0X3X7X7X2XA.G.R Z  .8XwX9X9X9XwX9X9X,X>X@X@X}.V.v.c.v l 0 8 7 - & % # o o X X X X X X X X X X X X   3 Y *.*.K.jXdX{ ",
"pX{ Q 1.-.G.Z.BXSXSXCXZ.O.Q 6 o.bXNXfXeXeXeXeXeXeX<X=X#XoXE.n.v.q.v u 7 7 - = % o   X X X X X X X X X X X X X X 3 U &.>.h.gXdX{ ",
"pX{ ! :.:.$.b.ZXSXSXZX1XO.R Z 8.mXNX;X/.Y.Y.^.`.).).(.(.k.a.u.0.k k u 7 - - = % @ X   X X X X X X X X X X X X . 3 Y *.,.h.gXdX/ ",
"iX{ ! 1.;.$.m 4XZXAX7XV o.T Z 9.mXMX;XY.T.^.T.^.).).(.~.k.p.u.5.6.c g - 7 - = % @ o X   X X X X X X X X X X X . 3 Y >.,.h.gXdX{ ",
"iX{ Q :.-.$.m B BXZX2XV o.T A o.bXMX;X^.^.T.T.).).).(.~.k.k.i.0.6.z i 7 7 - = % @ o X   X X X X X X X X X X X X 3 Y &.>.h.jXyX/ ",
"iX{ ! :.:.$.m B 7XZX2XV o.W Z t.bXNX;XY.T.T.^.).).).(.~.k.f.i.0.6.x i - 8 - = % @ o o X X X X X X X X X X X X . 3 R ;.,.h.gXdX/ ",
"pX{ Q :.:.$.m M V 7X2XV o.T Z t.mXNX;X^.^.T.T.).).).(.~.k.f.i.0.6.z g 7 - - = $ @ o X o X X X X X X X X X X X X 3 Y ;.*.h.gXdX/ ",
"iX{ Q :.&.$.m C 7XVX3XV o.W Z o.cXNX;X^.T.T.^.).).).(.~.k.f.i.0.3.x u - 7 - = # o o o X X X X X X X X X X X X X 3 Y ;.:.2.jXdX[ ",
"pX{ Q :.:.$.n 6XAXAX7XM ..W Z 9.mXNX;XT.T.T.T.).).).(.~.k.f.i.0.k z u 7 7 - = * @ o o X X X X X X X X X X X X X 3 Y ;.1.h.kXyX/ ",
"pX{ ! :.:.J.c b 3X4XB t O.T A o.cXNX;XT.T.T.^.).).).(.~.k.f.i.0.6.x 0 7 7 - = * @ o o X X X X X X X X X X X X . 3 Y ;.*.h.gXdX/ ",
"pX{ ! :.:.U.5Xb , , 1 b.G.E Z e.mXNX;X^.^.T.^.).).).(.~.k.f.i.5.6.x g 7 7 - = # @ o o X o X X X X X X X X X X X 3 Y ;.*.h.kXdX/ ",
"pX{ ! 1.*.K.vX0X5 5 .XjXK.R A e.cXNX;X^.^.T.^.^.).).(.~.k.f.i.0.6.x g 7 7 - = # @ o o X X X X X X X X X X X X . 3 Y ;.:.2.jXdX[ ",
"pX{ ! :.*.L.nXwXF A 8XjXg.Y Z e.cXNX;XT.T.T.^.).).).(.~.k.f.i.0.3.x 0 - 7 - - # o o o X X X X X X X X X X X X . 3 Y ;.*.h.kXyX/ ",
"pX{ Q :.=.P.zXwXI D &XkXg.T A e.mXMX;XT.T.T.^.).).).(.~.k.p.i.0.7.x u 7 7 - = % @ o o o X X X X X X X X X X X X 3 Y :.>.h.gXdX/ ",
"pX{ Q 1.-.U.xXqXF D 8XlXJ.E A 9.mXNX;XT.T.T.T.).).).(.~.k.f.u.5.k x p 7 ; - = % @ o o X X X X X X X X X X X X . 3 Y ;.*.h.kXdX/ ",
"pX{ Q 1.:.U.xXqXK D 8XjXG.R A 9.mXMXeX[.'.'.'.'.'.'.'._.W.f.a.w.7.n p 7 7 - - % o o X X X X X X X X X X X X X   3 Y ;.*.2.gXdX} ",
"pX{ Q >.*.U.xXqXK D 8XjXJ.R Z 9.zXmXzXjXzXjXkXgXfXtX,X>X@X}.}.c.c.x u 7 8 - & #   X X X X X X X X X X X X X X o 3 Y *.*.K.jXdX/ ",
"pX{ ! :.-.U.xXqXK S &XkXJ.R A P z.z.z.z.z.n.x.x.E.a.a.a.u.q.q.k s p 9 7 7 - = % # o o X X X X X X X X X X X X   3 H ;.*.h.gXdX/ ",
"pX{ Q :.:.U.nXqXK S &XkXJ.W D G Z A S S A A G H L ~ ~ ` _ _ _ r q 9 8 ; - = = # # o o X o X X X X X X X X X X X 3 Y ;.*.h.gXdX/ ",
"pX{ ! 1.*.U.xXqXK S &XjXG.Q.%X%X$X$X$X%X$X$X%X#X#X#XoX}.}.n.v.q.c g y < > ; * # @ o X o X X X X X X X X X X X   3 Y &.*.h.gXdX/ ",
"iX{ ! :.;.U.xXqXK S &XjXK.R.-X*X*X*X-X*X-X*X=X=X=X*XOXoXC.v.c.v c p y y > * * $ o o o X X X X X X X X X X X X   3 Y &.*.h.gXdX/ ",
"iX( +.:.;.U.xX9XK S >XlXK.;.;.,.1.,.,.<.=.=.1.2.j.g.d.i.v v.c.N n g h 1 < : * $ O o o X X X X X X X X X X X X   3 Y ;.,.h.gXdX/ ",
"pX{ ! 2.*.U.xXwXK S &XlXg.*.;.,.1.:.:.:.:.:.1.2.j.g.f.3.|.XX|.Z.N n b h 1 > * $ o o o o X X X X X X X X X X X   3 Y ;.:.h.gXdX/ ",
"pX{ ! :.;.U.xXqXJ S &XgXP.;.:.:.;.:.=.:.:.1.-.2.g.g.p.3.|.b.N c n h y < > > * @     X X X X X X X X X X X X X X 3 Y ;.:.h.fXdX/ ",
"iX{ ! 1.*.U.xX9XJ S &XlXg.=.<.=.2.=.:.1.:.:.-.j.j.j.d.5.c.N N c g h h < > * * $     X   X X X X X X X X X X X X 3 R :.:.h.fXdX/ ",
"pX( ! 1.-.U.xXqXK S &XlXh.2.;.,.:.:.:.:.2.:.;.2.g.g.s.d.y.3.e e u y y < * ; * $ O X o o X X X X X X X X X X X   3 Y ;.1.h.gXdX/ ",
"dX} ! 1.:.U.xXqXK S &XkXg.#.! +.+.! ! ! ! ! ! ! @.#.] y.y._ r e 9 0 0 < < ; * $ $ o o X X X X X X X X X X X X . 3 Y :.>.h.gXdX/ ",
"pX{ ! :.:.U.xXqXK S 8XkXJ.R A A Z A A A A A F G L ~ ` ` _ _ r r q 9 8 ; - = = # o o X X X X X X X X X X X X X . 3 Y ;.*.h.fXdX/ ",
"pX{ ! 2.*.U.xXqXK D %XkXL.R A / S. X].+X]. X+XoXoXoXoXE.a.w.r r q 9 8 7 - - = # @ o o o X X X X X X X X X X X . 3 Y ;.1.h.fXdX/ ",
"pX{ ! =.*.I.xX9XP 6 8XxXh.R Z 9.bXMXlXfXgXgXfXfXsX<X<X>X@XC.5.r e j 0 7 7 - = # @ o X X X X X X X X X X X X X X 3 R ;.,.h.gXdX/ ",
"pX{ ! :.*.L.zXXXd d A.aXJ.E A 9.bXMXeX`.`.`.`.).'.(.'.~.k.m.u.5.k l u 7 7 - = % @ o o o X X X X X X X X X X X X 3 Y ;.,.h.fXdX/ ",
"pX} ! :.1.L.XX4XBXVX6XZ.G.T A 9.bXNX=XT.T.T.T.^.).).(.~.k.f.i.0.6.x i 8 7 - = % @ o o o o X X X X X X X X X X   3 Y ;.1.g.fXdX/ ",
"pX{ ! 1.:.G.b.CXSXSXAXZ.O.W A 9.bXNX;XT.T.T.T.).).).(.~.k.f.u.r.6.x i 7 7 - = % @ o o X X X X X X X X X X X X   3 Y :.:.h.fXdX/ ",
"pX{ @.1.;.$.Z.VXSXSXCXZ.O.W 6 o.bXNX:XY.^.T.T.).`.).(.~.k.f.i.0.6.z i 7 7 - & % @ O X X X X X X X X X X X X X X 3 U *.>.h.gXdX/ ",
"pX{ +.1.:.$.m 1XVXAX4XV o.W Z t.cXNX:X^.T.T.T.).).)./.~.k.f.i.5.6.z i 7 - - = % @ . X X X X X X X X X X X X X . 3 Y *.>.h.gXdX/ ",
"pX} Q 1.-.$.m B BXZX3XV o.W Z o.mXNX;XY.^.T.^.`.).).(.~.k.f.i.5.6.z i 7 8 - & % @ . X X X X X X X X X X X X X . 3 Y &.*.h.fXdX/ ",
"pX{ ! 1.-.$.m B 6XBX2XV o.W A l.cXNX;X^.T.T.^.).).).(.~.k.f.i.5.6.x i 7 - - = % $ O . X X X X X X X X X X X X X 3 Y *.*.h.fXdX/ ",
"pX{ Q 1.:.%.m M V 6X2XV o.R A o.mXNX;X^.^.^.^./.).).(.~.k.f.u.5.6.x i ; 8 - = % @ X o X X X X X X X X X X X X X 3 Y ;.,.h.gXdX/ ",
"pX{ ! 1.:.$.m 1XBXCX4XV o.E A 8.cXMX;XT.T.T.^.(.).).(.~.k.f.u.5.6.x p 7 - - * % @ O X o X X X X X X X X X X X X 3 Y ;.1.h.gXdX/ ",
"pX{ @.1.:.%.x 3XZXZX6XM o.W Z 9.bXMXsX:X:X:X:X:X:X:X=XOXoXa.a.q.q.c i 7 7 - = % @ o o X X X X X X X X X X X X X 3 Y ;.:.g.fXdX/ ",
"pX} Q 1.-.G.m f V C b t O.W A  .yXdXyXyXyXdXdXsXrX,X>X@X@X}.}.N v x 0 7 7 - & % @ O o X X X X X X X X X X X X X 3 R :.:.h.fXdX/ ",
"pX{ ! =.*.R.0XN t > b F.G.R A A P I I P P P I L ~ ] ] ` 4._ r r e 9 9 - - - - $ @ X O X X X X X X X X X X X X . 3 Y ;.>.h.gXdX/ ",
"pX{ ! 1.*.U.nX0X6 6 8XjXG.O..... . . ...........y.y.y.5.5.3.6.r j u 0 8 7 - = % @ O X X X X X X X X X X X X X . 3 Y ;.1.h.gXdX/ ",
"pX} Q 1.*.K.xX9XP 6 8XjXG.{.uXuXuXuXuXuXuXuXuXuX,X,X,X#X X}.V.c.v c j i 8 - = % @ O X X X X . X X X X X X X X . 3 Y ;.,.h.gXdX) ",
"pX{ ! 1.>.P.xX9XD D 8XjXG.1.L.L.J.K.K.K.K.K.h.U.g.~.k.f.p.u.0.3.k s u 0 8 - & # $ X O O X X X X X X X X X X X . 3 Y >.<.h.fXdX/ ",
"5X[ W 2.<.U.xXwXF A 8XxXQ.K.P.P.P.L.L.U.U.K.U.I.!.~.~.d.p.u.w.6.k d p t > - - * $ O X O X X X X X X X X X X X O 3 Y ;.<.h.gXdX/ ",
".XP @.1.,.U.bXwXK 6 &XNXxXxXxXxXkXzXxXxXxXxXlXkXgXsX,X>X@X}.V.b.N n g i y > : * O O X X X X X X X X X O X X X . 3 R >.,.s.jXdX( ",
".Xw U Q W X.].z.F D o.N.N.N.N.N.N.N.N.N.N.N.N.N.E.E.C.m.u.v.q.x j s u 8 ; ; * $ O X X X X X X X X X : : : X X X 3 H Q Q X.B.N.P ",
".X7.[ [ [ { [ [ [ / [ [ w ^ ^ [ [ ^ ^ ^ [ / [ _  . .4.4.4.q.k k j l g g a a y 1 , , , , , , , , , , f f b , , , s [ [ / } r [ [ "
};
