/* XPM */
static char *result[] = {
/* columns rows colors chars-per-pixel */
"16 16 25 1 ",
"  c #090909",
". c #23201F",
"X c #2B2722",
"o c #312D26",
"O c #3B342B",
"+ c #353533",
"@ c #363432",
"# c #4B4338",
"$ c #4C463E",
"% c #554B3C",
"& c #524447",
"* c #534D45",
"= c #625748",
"- c #63625F",
"; c #726555",
": c #726757",
"> c #8F8973",
", c #918F83",
"< c #9D9585",
"1 c #9A978D",
"2 c #A3A195",
"3 c #B9B49C",
"4 c #C1BCA8",
"5 c #E0D8B3",
"6 c None",
/* pixels */
"6666666666666666",
"6666666666666666",
"6666666666666666",
"6666666666666666",
"6666.@+-6 666666",
"6666#=*12,666666",
"666&XOo$<4366666",
"66666666;:>56666",
"6666666666%66666",
"6666666666666666",
"6666666666666666",
"6666666666666666",
"6666666666666666",
"6666666666666666",
"6666666666666666",
"6666666666666666"
};
