/* XPM */
static char *result[] = {
/* columns rows colors chars-per-pixel */
"64 64 155 2 ",
"   c #040404",
".  c #0A0907",
"X  c #0B0B0B",
"o  c #100E0C",
"O  c #12110F",
"+  c #141413",
"@  c #191613",
"#  c #1C1916",
"$  c #1C1619",
"%  c #1D1C1A",
"&  c #211E1B",
"*  c #23221E",
"=  c #28241D",
"-  c #252422",
";  c #292624",
":  c #2C2924",
">  c #2D2C2A",
",  c #332D26",
"<  c #322E2A",
"1  c #34312C",
"2  c #3F372C",
"3  c #3A2B34",
"4  c #353433",
"5  c #383733",
"6  c #3C3A35",
"7  c #3E3C39",
"8  c #41392E",
"9  c #423D37",
"0  c #433E3C",
"q  c #4C4336",
"w  c #45433D",
"e  c #49443D",
"r  c #51473A",
"t  c #554B3D",
"y  c #474440",
"u  c #494441",
"i  c #4D4A44",
"p  c #4F4F4D",
"a  c #584F47",
"s  c #5D5244",
"d  c #51514B",
"f  c #59524A",
"g  c #5E4156",
"h  c #555250",
"j  c #5B5B5A",
"k  c #675A47",
"l  c #62574B",
"z  c #655A4B",
"x  c #6B5D4A",
"c  c #645D53",
"v  c #695E53",
"b  c #69515C",
"n  c #675C58",
"m  c #6E614F",
"M  c #636154",
"N  c #6C6156",
"B  c #64625C",
"V  c #6A6759",
"C  c #6C6858",
"Z  c #726453",
"A  c #776956",
"S  c #7D6D57",
"D  c #7C6D5A",
"F  c #7E705E",
"G  c #7F5B74",
"H  c #676766",
"J  c #6F6F6E",
"K  c #7E6A6B",
"L  c #747262",
"P  c #787560",
"I  c #7C7A71",
"U  c #7F7E7B",
"Y  c #80715C",
"T  c #837463",
"R  c #8B7A62",
"E  c #80726B",
"W  c #807D6C",
"Q  c #8E7E6A",
"!  c #866577",
"~  c #866D79",
"^  c #93826D",
"/  c #9E896F",
"(  c #868375",
")  c #898777",
"_  c #8D8A77",
"`  c #8D8678",
"'  c #958573",
"]  c #9C8970",
"[  c #9E8D79",
"{  c #A48E73",
"}  c #A08F79",
"|  c #A69175",
" . c #A79379",
".. c #AB967C",
"X. c #AF9A7F",
"o. c #B39D7F",
"O. c #977D84",
"+. c #8D8D89",
"@. c #908D84",
"#. c #95938B",
"$. c #939390",
"%. c #A6958D",
"&. c #B29C80",
"*. c #A7A286",
"=. c #AAA692",
"-. c #AFAA93",
";. c #A8A69B",
":. c #B0AA9C",
">. c #BBB597",
",. c #BDB9A7",
"<. c #B3B2A9",
"1. c #BBB9AD",
"2. c #BEBDB6",
"3. c #C5C2AE",
"4. c #C8C4AE",
"5. c #CEC9AD",
"6. c #D0C8A4",
"7. c #D5CEA9",
"8. c #D7D0AD",
"9. c #DAD3AD",
"0. c #C9C6B5",
"q. c #C6C4BC",
"w. c #DED7B4",
"e. c #DCD7BF",
"r. c #E3DDB6",
"t. c #E3DDBC",
"y. c #F3E9BF",
"u. c #CBCBC5",
"i. c #D4D2C3",
"p. c #DBD7C4",
"a. c #DEDAC3",
"s. c #D3D2CB",
"d. c #DED8C9",
"f. c #DEDCD2",
"g. c #E2DECB",
"h. c #EAE3C2",
"j. c #EFE8C3",
"k. c #E7E2CD",
"l. c #EBE5C9",
"z. c #F5EDC4",
"x. c #F9EFC6",
"c. c #F4EDCD",
"v. c #FAF1C5",
"b. c #FCF3CC",
"n. c #E5E2D4",
"m. c #E8E4D0",
"M. c #EBE9DE",
"N. c #F3EED6",
"B. c #F2EDD9",
"V. c #FAF3D2",
"C. c #F7F2DA",
"Z. c #FAF4DC",
"A. c #F5F2E4",
"S. c #F9F8ED",
"D. c None",
/* pixels */
"D.D.D.D.D.D.D.D.D.D.D.D.D.D.D.D.D.D.D.D.D.D.D.D.D.D.D.D.D.D.D.D.D.D.D.D.D.D.D.D.D.D.D.D.D.D.D.D.D.D.D.D.D.D.D.D.D.D.D.D.D.D.D.D.",
"D.D.D.D.D.D.D.D.D.D.D.D.D.D.D.D.D.D.D.D.D.D.D.D.D.D.D.D.D.D.D.D.D.D.D.D.D.D.D.D.D.D.D.D.D.D.D.D.D.D.D.D.D.D.D.D.D.D.D.D.D.D.D.D.",
"D.D.D.D.D.D.D.D.D.D.D.D.D.D.D.D.D.D.D.D.D.D.D.D.D.D.D.D.D.D.D.D.D.D.D.D.D.D.D.D.D.D.D.D.D.D.D.D.D.D.D.D.D.D.D.D.D.D.D.D.D.D.D.D.",
"D.D.D.D.D.D.D.D.D.D.D.D.D.D.D.D.D.D.D.D.D.D.D.D.D.D.D.D.D.D.D.D.D.D.D.D.D.D.D.D.D.D.D.D.D.D.D.D.D.D.D.D.D.D.D.D.D.D.D.D.D.D.D.D.",
"D.D.D.D.D.D.D.D.D.D.D.D.D.D.D.D.D.D.D.D.D.D.D.D.D.D.D.D.D.D.D.D.D.D.D.D.D.D.D.D.D.D.D.D.D.D.D.D.D.D.D.D.D.D.D.D.D.D.D.D.D.D.D.D.",
"D.D.D.D.D.D.D.D.D.D.D.D.D.D.D.D.D.D.D.D.D.D.D.D.D.D.D.D.D.D.D.D.D.D.D.D.D.D.D.D.D.D.D.D.D.D.D.D.D.D.D.D.D.D.D.D.D.D.D.D.D.D.D.D.",
"D.D.D.D.D.D.D.D.D.D.D.D.D.D.D.D.D.D.D.D.D.D.D.D.D.D.D.D.D.D.D.D.D.D.D.D.D.D.D.D.D.D.D.D.D.D.D.D.D.D.D.D.D.D.D.D.D.D.D.D.D.D.D.D.",
"D.D.D.D.D.D.D.D.D.D.D.D.D.D.D.D.D.D.D.D.D.D.D.D.D.D.D.D.D.D.D.D.D.D.D.D.D.D.D.D.D.D.D.D.D.D.D.D.D.D.D.D.D.D.D.D.D.D.D.D.D.D.D.D.",
"D.D.D.D.D.D.D.D.D.D.D.D.D.D.D.D.D.D.D.D.D.D.D.D.D.D.D.D.D.D.D.D.D.D.D.D.D.D.D.D.D.D.D.D.D.D.D.D.D.D.D.D.D.D.D.D.D.D.D.D.D.D.D.D.",
"D.D.D.D.D.D.D.D.D.D.D.D.D.D.D.D.D.D.D.D.D.D.D.D.D.D.D.D.D.D.D.D.D.D.D.D.D.D.D.D.D.D.D.D.D.D.D.D.D.D.D.D.D.D.D.D.D.D.D.D.D.D.D.D.",
"D.D.D.D.D.D.D.D.D.D.D.D.D.D.D.D.D.D.D.D.D.D.D.D.D.D.D.D.D.D.D.D.D.D.D.D.D.D.D.D.D.D.D.D.D.D.D.D.D.D.D.D.D.D.D.D.D.D.D.D.D.D.D.D.",
"D.D.D.D.D.D.D.D.D.D.D.D.D.D.D.D.D.D.D.D.D.D.D.D.D.D.D.D.  D.D.D.D.D.D.D.D.D.D.D.D.D.D.D.D.D.D.D.D.D.D.D.D.D.D.D.D.D.D.D.D.D.D.D.",
"D.D.D.D.D.D.D.D.D.D.D.D.D.D.D.D.D.D.D.D.D.D.D.D.D.D.D.%   D.D.D.D.D.D.D.D.  D.D.D.D.D.D.D.D.D.D.D.D.D.D.D.D.D.D.D.D.D.D.D.D.D.D.",
"D.D.D.D.D.D.D.D.D.D.D.D.D.D.D.D.D.D.D.D.D.D.D.D.D.D.D.; X D.D.D.D.D.D.D.X   D.D.D.D.D.D.D.D.D.D.D.D.D.D.D.D.D.D.D.D.D.D.D.D.D.D.",
"D.D.D.D.D.D.D.D.D.D.D.D.D.D.D.D.D.D.D.D.D.D.D.D.D.D.% + X D.D.D.D.D.% + X   D.D.D.D.D.D.D.D.D.D.D.D.D.D.D.D.D.D.D.D.D.D.D.D.D.D.",
"D.D.D.D.D.D.D.D.D.D.D.D.D.D.D.D.D.D.D.D.D.D.7 D.D.D.. D.D.X D.D.D.- + D.D.X D.D.D.D.D.D.D.D.D.D.D.D.D.D.D.D.D.D.D.D.D.D.D.D.D.D.",
"D.D.D.D.D.D.D.D.D.D.D.D.D.D.D.D.D.D.> 4 5 4 4 4 4 O O D.D.X D.D.; # D.D.D.X D.D.D.D.D.D.D.D.D.D.D.D.D.D.D.D.D.D.D.D.D.D.D.D.D.D.",
"D.D.D.D.D.D.D.D.D.D.D.D.D.D.D.D.D.+ + $ - 7 p 7 @   4 O - $ D.; % D.D.D.D.X X     D.D.D.D.D.D.D.D.D.D.D.D.D.D.D.D.D.D.D.D.D.D.D.",
"D.D.D.D.D.D.D.D.D.D.D.D.D.D.D.D.+ < 0 u y 0 7 B J > 4 O > $.U - D.D.D.D.D.X   X . D.D.D.D.D.D.D.D.D.D.D.D.D.D.D.D.D.D.D.D.D.D.D.",
"D.D.D.D.D.D.D.D.D.D.D.D.D.D.D.D.+ & + .     X H u.j > 4 p +.s.2.D.D.D.D.% X D.D.% D.D.D.D.D.D.D.D.D.D.D.D.D.D.D.D.D.D.D.D.D.D.D.",
"D.D.D.D.D.D.D.D.D.D.D.D.D.D.D.D.= .       . @ O 4 * % p u.u.s.n.M.<.e 1 %   D.D.% D.D.D.D.D.D.D.D.D.D.D.D.D.D.D.D.D.D.D.D.D.D.D.",
"D.D.D.D.D.D.D.D.D.D.D.D.D.D.D.D.D.s s r < a Q Y t O & i q.S.A.f.#.p i ;.i.y D.D.% D.D.D.D.D.D.D.D.D.D.D.D.D.D.D.D.D.D.D.D.D.D.D.",
"D.D.D.D.D.D.D.D.D.D.D.D.D.$ + D.w D ....{ ] &.&.A @ q w ` d.n.@.9 H 1.d.B.p.0.D.- D.D.D.D.D.D.D.D.D.D.D.D.D.D.D.D.D.D.D.D.D.D.D.",
"D.D.D.D.D.D.D.D.D.D.D.$ g g 3 : + & ^ &.R x  .o.s % N u A [ B 1 I m.A.n.p.m.C.3.7 D.D.D.D.D.D.D.D.D.D.D.D.D.D.D.D.D.D.D.D.D.D.D.",
"D.D.D.D.D.D.D.D.D.D.D.& G ! b $   D.D.z : @ Y { 8 = S t s q % f :.k.Z.A.C.g.a.4.w =.D.D.D.D.D.D.D.D.D.D.D.D.D.D.D.D.D.D.D.D.D.D.",
"D.D.D.D.D.D.D.D.D.D.D.; ~ O.K < D.D.D.    % k q @ . = i & X q ' I M ,.N.Z.C.N.4.e -.V.c.D.D.D.D.D.D.D.D.D.D.D.D.D.D.D.D.D.D.D.D.",
"D.D.D.D.D.D.D.D.D.D.D.$ n %.E < D.D.D.X X @ D.D.. . + 7 * @ a v N x c ( e.C.C.l.d _ j.b.b.h.D.D.D.D.D.D.D.D.D.D.D.D.D.D.D.D.D.D.",
"D.D.D.D.D.D.D.D.D.D.D.. @ N c X + + @ X X + D.D.  X   & 1 D.D.9 z ' [ l e =.c.c.M ) t.t.x.b.z.r.D.D.D.D.D.D.D.D.D.D.D.D.D.D.D.D.",
"D.D.D.D.D.D.D.D.D.D.D.D.  X %   D.D.D.X D.D.D.D.D.D.D.* 5 D.D.* T T ' [ 1 & V 5.F W V.t.w.z.v.z.D.D.D.D.D.D.D.D.D.D.D.D.D.D.D.D.",
"D.D.D.D.D.D.D.D.D.D.D.D.  D.D.X D.D.D.X D.D.D.D.D.D.D.D.> D.D.D.D.^ D Z S Y , > 6 C c.b.j.7.7.D.D.D.D.D.D.D.D.D.D.D.D.D.D.D.D.D.",
"D.D.D.D.D.D.D.D.D.D.D.X X D.D.X D.D.D.X D.D.D.D.D.D.D.D.: D.D.D.D.D.D N R  .Z 8 # , >.x.b.x.r.D.D.D.D.D.D.D.D.D.D.D.D.D.D.D.D.D.",
"D.D.D.D.D.D.D.D.D.D.D.$ D.D.D.+ D.D.D.X D.D.D.D.D.D.D.D.; D.D.D.D.D.D.D.R m m { A o * F 6.x.v.r.D.D.D.D.D.D.D.D.D.D.D.D.D.D.D.D.",
"D.D.D.D.D.D.D.D.D.D.D.D.D.D.D.+ D.D.D.X D.D.D.D.D.D.D.D.* D.D.D.D.D.D.D.D.Y Y A k = r o = *.r.9.D.D.D.D.D.D.D.D.D.D.D.D.D.D.D.D.",
"D.D.D.D.D.D.D.D.D.D.D.D.D.D.D.* D.D.D.D.D.D.D.D.D.D.D.D.% D.D.D.D.D.D.D.D.D.D.x x 8 k t & . D.D.D.D.D.D.D.D.D.D.D.D.D.D.D.D.D.D.",
"D.D.D.D.D.D.D.D.D.D.D.D.D.D.D.; D.D.D.D.D.D.D.D.D.D.D.D.@ D.D.D.D.D.D.D.D.D.D.D./ q 8 | Y O D.D.D.D.D.D.D.D.D.D.D.D.D.D.D.D.D.D.",
"D.D.D.D.D.D.D.D.D.D.D.D.D.D.D.: D.D.D.D.D.D.D.D.D.D.D.D.D.X D.D.D.D.D.D.D.D.D.D.D.D.& F Y = D.D.D.D.D.D.D.D.D.D.D.D.D.D.D.D.D.D.",
"D.D.D.D.D.D.D.D.D.D.D.D.D.D.D.5 D.D.D.D.D.D.D.D.D.D.D.D.D.X D.D.D.D.D.D.D.D.D.D.D.D.X D.D.D.D.D.D.D.D.D.D.D.D.D.D.D.D.D.D.D.D.D.",
"D.D.D.D.D.D.D.D.D.D.D.D.D.D.D.9 D.D.D.D.D.D.D.D.D.D.D.D.D.X D.D.D.D.D.D.D.D.D.D.D.D.D.D.D.D.D.D.D.D.D.D.D.D.D.D.D.D.D.D.D.D.D.D.",
"D.D.D.D.D.D.D.D.D.D.D.D.D.D.D.w D.D.D.D.D.D.D.D.D.D.D.D.D.o D.D.D.D.D.D.D.D.D.D.D.D.D.+ D.D.D.D.D.D.D.D.D.D.D.D.D.D.D.D.D.D.D.D.",
"D.D.D.D.D.D.D.D.D.D.D.D.D.D.D.1 D.D.D.D.D.D.D.D.D.D.D.D.D.o D.D.D.D.D.D.D.D.D.D.D.D.D.D.X D.D.D.D.D.D.D.D.D.D.D.D.D.D.D.D.D.D.D.",
"D.D.D.D.D.D.D.D.D.D.D.D.D.D.D.X D.D.D.D.D.D.D.D.D.D.D.D.D.O D.D.D.D.D.D.D.D.D.D.D.D.D.D.D.X D.D.D.D.D.D.D.D.D.D.D.D.D.D.D.D.D.D.",
"D.D.D.D.D.D.D.D.D.D.D.D.D.D.D.X D.D.D.D.D.D.D.D.D.D.D.D.D.D.D.D.D.D.D.D.D.D.D.D.D.D.D.D.D.D.D.D.D.D.D.D.D.D.D.D.D.D.D.D.D.D.D.D.",
"D.D.D.D.D.D.D.D.D.D.D.D.D.D.D.D.D.D.D.D.D.D.D.D.D.D.D.D.D.D.D.D.D.D.D.D.D.D.D.D.D.D.D.D.D.D.D.D.D.D.D.D.D.D.D.D.D.D.D.D.D.D.D.D.",
"D.D.D.D.D.D.D.D.D.D.D.D.D.D.X D.D.D.D.D.D.D.D.D.D.D.D.D.D.D.D.D.D.D.D.D.D.D.D.D.D.D.D.D.D.D.D.D.D.D.D.D.D.D.D.D.D.D.D.D.D.D.D.D.",
"D.D.D.D.D.D.D.D.+ D.D.D.D.D.D.D.D.D.D.D.D.D.D.D.D.D.D.D.D.D.D.D.D.D.D.D.D.D.D.D.D.D.D.D.D.D.D.D.D.D.D.D.D.D.D.D.D.D.D.D.D.D.D.D.",
"D.D.D.D.D.D.D.D.D.D.D.D.D.D.D.D.D.D.D.D.D.D.D.D.D.D.D.D.D.D.D.D.D.D.D.D.D.D.D.D.D.D.D.D.D.D.D.D.D.D.D.D.D.D.D.D.D.D.D.D.D.D.D.D.",
"D.D.D.D.D.D.D.D.D.D.D.D.D.D.D.D.D.D.D.D.D.D.D.D.D.D.D.D.D.D.D.D.D.D.D.D.D.D.D.D.D.D.D.D.D.D.D.D.D.D.D.D.D.D.D.D.D.D.D.D.D.D.D.D.",
"D.D.D.D.D.D.D.D.D.D.D.D.D.D.D.D.D.D.D.D.D.D.D.D.D.D.D.D.D.D.D.D.D.D.D.D.D.D.D.D.D.D.D.D.D.D.D.D.D.D.D.D.D.D.D.D.D.D.D.D.D.D.D.D.",
"D.D.D.D.D.D.D.D.D.D.D.D.D.D.D.D.D.D.D.D.D.D.D.D.D.D.D.D.D.D.D.D.D.D.D.D.D.D.D.D.D.D.D.D.D.D.D.D.D.D.D.D.D.D.D.D.D.D.D.D.D.D.D.D.",
"D.D.D.D.D.D.D.D.D.D.D.D.D.D.D.D.D.D.D.D.D.D.D.D.D.D.D.D.D.D.D.D.D.D.D.D.D.D.D.D.D.D.D.D.D.D.D.D.D.D.D.D.D.D.D.D.D.D.D.D.D.D.D.D.",
"D.D.D.D.D.D.D.D.D.D.D.D.D.D.D.D.D.D.D.D.D.D.D.D.D.D.D.D.D.D.D.D.D.D.D.D.D.D.D.D.D.D.D.D.D.D.D.D.D.D.D.D.D.D.D.D.D.D.D.D.D.D.D.D.",
"D.D.D.D.D.D.D.D.D.D.D.D.D.D.D.D.D.D.D.D.D.D.D.D.D.D.D.D.D.D.D.D.D.D.D.D.D.D.D.D.D.D.D.D.D.D.D.D.D.D.D.D.D.D.D.D.D.D.D.D.D.D.D.D.",
"D.D.D.D.D.D.D.D.D.D.D.D.D.D.D.D.D.D.D.D.D.D.D.D.D.D.D.D.D.D.D.D.D.D.D.D.D.D.D.D.D.D.D.D.D.D.D.D.D.D.D.D.D.D.D.D.D.D.D.D.D.D.D.D.",
"D.D.D.D.D.D.D.D.D.D.D.D.D.D.D.D.D.D.D.D.D.D.D.D.D.D.D.D.D.D.D.D.D.D.D.D.D.D.D.D.D.D.D.D.D.D.D.D.D.D.D.D.D.D.D.D.D.D.D.D.D.D.D.D.",
"D.D.D.D.D.D.D.D.D.D.D.D.D.D.D.D.D.D.D.D.D.D.D.D.D.D.D.D.D.D.D.D.D.D.D.D.D.D.D.D.D.D.D.D.D.D.D.D.D.D.D.D.D.D.D.D.D.D.D.D.D.D.D.D.",
"D.D.D.D.D.D.D.D.D.D.D.D.D.D.D.D.D.D.D.D.D.D.D.D.D.D.D.D.D.D.D.D.D.D.D.D.D.D.D.D.D.D.D.D.D.D.D.D.D.D.D.D.D.D.D.D.D.D.D.D.D.D.D.D.",
"D.D.D.D.D.D.D.D.D.D.D.D.D.D.D.D.D.D.D.D.D.D.D.D.D.D.D.D.D.D.D.D.D.D.D.D.D.D.D.D.D.D.D.D.D.D.D.D.D.D.D.D.D.D.D.D.D.D.D.D.D.D.D.D.",
"D.D.D.D.D.D.D.D.D.D.D.D.D.D.D.D.D.D.D.D.D.D.D.D.D.D.D.D.D.D.D.D.D.D.D.D.D.D.D.D.D.D.D.D.D.D.D.D.D.D.D.D.D.D.D.D.D.D.D.D.D.D.D.D.",
"D.D.D.D.D.D.D.D.D.D.D.D.D.D.D.D.D.D.D.D.D.D.D.D.D.D.D.D.D.D.D.D.D.D.D.D.D.D.D.D.D.D.D.D.D.D.D.D.D.D.D.D.D.D.D.D.D.D.D.D.D.D.D.D.",
"D.D.D.D.D.D.D.D.D.D.D.D.D.D.D.D.D.D.D.D.D.D.D.D.D.D.D.D.D.D.D.D.D.D.D.D.D.D.D.D.D.D.D.D.D.D.D.D.D.D.D.D.D.D.D.D.D.D.D.D.D.D.D.D.",
"D.D.D.D.D.D.D.D.D.D.D.D.D.D.D.D.D.D.D.D.D.D.D.D.D.D.D.D.D.D.D.D.D.D.D.D.D.D.D.D.D.D.D.D.D.D.D.D.D.D.D.D.D.D.D.D.D.D.D.D.D.D.D.D.",
"D.D.D.D.D.D.D.D.D.D.D.D.D.D.D.D.D.D.D.D.D.D.D.D.D.D.D.D.D.D.D.D.D.D.D.D.D.D.D.D.D.D.D.D.D.D.D.D.D.D.D.D.D.D.D.D.D.D.D.D.D.D.D.D.",
"D.D.D.D.D.D.D.D.D.D.D.D.D.D.D.D.D.D.D.D.D.D.D.D.D.D.D.D.D.D.D.D.D.D.D.D.D.D.D.D.D.D.D.D.D.D.D.D.D.D.D.D.D.D.D.D.D.D.D.D.D.D.D.D.",
"D.D.D.D.D.D.D.D.D.D.D.D.D.D.D.D.D.D.D.D.D.D.D.D.D.D.D.D.D.D.D.D.D.D.D.D.D.D.D.D.D.D.D.D.D.D.D.D.D.D.D.D.D.D.D.D.D.D.D.D.D.D.D.D."
};
