/* XPM */
static char *result[] = {
/* columns rows colors chars-per-pixel */
"32 32 97 2 ",
"   c #080807",
".  c #090909",
"X  c #0B0B0B",
"o  c #0D0D0B",
"O  c #0D0D0C",
"+  c #0E0D0D",
"@  c #0E0E0E",
"#  c #121110",
"$  c #131211",
"%  c #141413",
"&  c #191815",
"*  c #181818",
"=  c #191919",
"-  c #1D1B1A",
";  c #1E1D1B",
":  c #1F1E1D",
">  c #1F1F1E",
",  c #221F1E",
"<  c #29251F",
"1  c #252321",
"2  c #292725",
"3  c #2F2A22",
"4  c #2F272B",
"5  c #2B2B2A",
"6  c #312B24",
"7  c #332D26",
"8  c #3B352C",
"9  c #3B352E",
"0  c #3A3631",
"q  c #3A3736",
"w  c #3E3D3A",
"e  c #443B2F",
"r  c #413B30",
"t  c #463F36",
"y  c #403D3C",
"u  c #44433E",
"i  c #494238",
"p  c #4E4539",
"a  c #4E483E",
"s  c #514738",
"d  c #564B3C",
"f  c #514C3E",
"g  c #493443",
"h  c #444342",
"j  c #4C4540",
"k  c #4F4145",
"l  c #534A42",
"z  c #544C40",
"x  c #554D44",
"c  c #5E5346",
"v  c #5E5550",
"b  c #5B5A54",
"n  c #5D5D5D",
"m  c #635745",
"M  c #6B5E4B",
"N  c #6A5D4C",
"B  c #6B6658",
"V  c #68665F",
"C  c #736759",
"Z  c #726F5F",
"A  c #7E6E59",
"S  c #796C5D",
"D  c #6A6A68",
"F  c #7E6470",
"G  c #837362",
"H  c #867661",
"J  c #877761",
"K  c #847A6B",
"L  c #99866E",
"P  c #848172",
"I  c #8A8776",
"U  c #8E8972",
"Y  c #87847A",
"T  c #89867C",
"R  c #A49075",
"E  c #9B9283",
"W  c #93928D",
"Q  c #97968E",
"!  c #9F988A",
"~  c #AEA996",
"^  c #B3B0A0",
"/  c #CDC9B5",
"(  c #C4C3BB",
")  c #DCD7BD",
"_  c #E3DBB5",
"`  c #E6DFBF",
"'  c #E9E1B9",
"]  c #ECE5BE",
"[  c #D9D6C6",
"{  c #DEDAC6",
"}  c #E2DECB",
"|  c #E0DED5",
" . c #EAE3C0",
".. c #E9E3C5",
"X. c #F3EBC5",
"o. c #F5EFD9",
"O. c None",
/* pixels */
"O.O.O.O.O.O.O.O.O.O.O.O.O.O.O.O.O.O.O.O.O.O.O.O.O.O.O.O.O.O.O.O.",
"O.O.O.O.O.O.O.O.O.O.O.O.O.O.O.O.O.O.O.O.O.O.O.O.O.O.O.O.O.O.O.O.",
"O.O.O.O.O.O.O.O.O.O.O.O.O.O.O.O.O.O.O.O.O.O.O.O.O.O.O.O.O.O.O.O.",
"O.O.O.O.O.O.O.O.O.O.O.O.O.O.O.O.O.O.O.O.O.O.O.O.O.O.O.O.O.O.O.O.",
"O.O.O.O.O.O.O.O.O.O.O.O.O.O.O.O.O.O.O.O.O.O.O.O.O.O.O.O.O.O.O.O.",
"O.O.O.O.O.O.O.O.O.O.O.O.O.O.O.O.O.O.O.O.O.O.O.O.O.O.O.O.O.O.O.O.",
"O.O.O.O.O.O.O.O.O.O.O.O.O.O.X O.O.O.. O.O.O.O.O.O.O.O.O.O.O.O.O.",
"O.O.O.O.O.O.O.O.O.O.O.O.O.# O.O.O.% X O.O.O.O.O.O.O.O.O.O.O.O.O.",
"O.O.O.O.O.O.O.O.O.2 q y > * = O.& O.O.. O.O.O.O.O.O.O.O.O.O.O.O.",
"O.O.O.O.O.O.O.O.- , : h n 5 D W O.O.O . O.O.O.O.O.O.O.O.O.O.O.O.",
"O.O.O.O.O.O.O.O.9 7 6 z 0 w ( | Q V b O.O.O.O.O.O.O.O.O.O.O.O.O.",
"O.O.O.O.O.O.g 4 t L J R p a E Y T [ } ^ u O.O.O.O.O.O.O.O.O.O.O.",
"O.O.O.O.O.O.F k O.O.< M 3 i 8 x ! { o./ P ..O.O.O.O.O.O.O.O.O.O.",
"O.O.O.O.O.O.v j O.+ @ O.  ; 1 l C K ~ ) I ` X.O.O.O.O.O.O.O.O.O.",
"O.O.O.O.O.O.o $ O.O.O.O.O.O.O.O.S G c B Z  .] ' O.O.O.O.O.O.O.O.",
"O.O.O.O.O.O.O.O.O.O.O.O.O.O.O.O.O.O.H N r U _ ' O.O.O.O.O.O.O.O.",
"O.O.O.O.O.O.O.O.O.O.O.O.O.O.O.O.O.O.O.A d e f O.O.O.O.O.O.O.O.O.",
"O.O.O.O.O.O.O.O.O.O.O.O.O.O.O.O.O.O.O.O.O.m s O.O.O.O.O.O.O.O.O.",
"O.O.O.O.O.O.O.O.O.O.O.O.O.O.O.O.O.O.O.O.O.O.O.O.O.O.O.O.O.O.O.O.",
"O.O.O.O.O.O.O.O.O.O.O.O.O.O.O.O.O.O.O.O.O.O.O.O.O.O.O.O.O.O.O.O.",
"O.O.O.O.O.O.O.O.O.O.O.O.O.O.O.O.O.O.O.O.O.O.O.O.O.O.O.O.O.O.O.O.",
"O.O.O.O.O.O.O.O.O.O.O.O.O.O.O.O.O.O.O.O.O.O.O.O.O.O.O.O.O.O.O.O.",
"O.O.O.O.O.O.O.O.O.O.O.O.O.O.O.O.O.O.O.O.O.O.O.O.O.O.O.O.O.O.O.O.",
"O.O.O.O.O.O.O.O.O.O.O.O.O.O.O.O.O.O.O.O.O.O.O.O.O.O.O.O.O.O.O.O.",
"O.O.O.O.O.O.O.O.O.O.O.O.O.O.O.O.O.O.O.O.O.O.O.O.O.O.O.O.O.O.O.O.",
"O.O.O.O.O.O.O.O.O.O.O.O.O.O.O.O.O.O.O.O.O.O.O.O.O.O.O.O.O.O.O.O.",
"O.O.O.O.O.O.O.O.O.O.O.O.O.O.O.O.O.O.O.O.O.O.O.O.O.O.O.O.O.O.O.O.",
"O.O.O.O.O.O.O.O.O.O.O.O.O.O.O.O.O.O.O.O.O.O.O.O.O.O.O.O.O.O.O.O.",
"O.O.O.O.O.O.O.O.O.O.O.O.O.O.O.O.O.O.O.O.O.O.O.O.O.O.O.O.O.O.O.O.",
"O.O.O.O.O.O.O.O.O.O.O.O.O.O.O.O.O.O.O.O.O.O.O.O.O.O.O.O.O.O.O.O.",
"O.O.O.O.O.O.O.O.O.O.O.O.O.O.O.O.O.O.O.O.O.O.O.O.O.O.O.O.O.O.O.O.",
"O.O.O.O.O.O.O.O.O.O.O.O.O.O.O.O.O.O.O.O.O.O.O.O.O.O.O.O.O.O.O.O."
};
