/* XPM */
static char *result[] = {
/* columns rows colors chars-per-pixel */
"64 64 224 2 ",
"   c #030202",
".  c #0E0B0B",
"X  c #160A09",
"o  c #1A140A",
"O  c #141414",
"+  c #1B1A19",
"@  c #271809",
"#  c #291714",
"$  c #381515",
"%  c #383305",
"&  c #2E2116",
"*  c #34251A",
"=  c #3E2B1E",
"-  c #332C06",
";  c #232324",
":  c #2D2D2D",
">  c #3D2821",
",  c #353434",
"<  c #3D3D3C",
"1  c #3A3A36",
"2  c #461818",
"3  c #551D1D",
"4  c #463909",
"5  c #532A16",
"6  c #6B341F",
"7  c #5F2021",
"8  c #413223",
"9  c #4E3D2B",
"0  c #553C29",
"q  c #593924",
"w  c #5B3434",
"e  c #423233",
"r  c #672825",
"t  c #772A28",
"y  c #753636",
"u  c #5F570F",
"i  c #665312",
"p  c #6C6109",
"a  c #756A09",
"s  c #736915",
"d  c #776E1B",
"f  c #776E16",
"g  c #4D492C",
"h  c #57452C",
"j  c #595429",
"k  c #44423E",
"l  c #574334",
"z  c #585339",
"x  c #64412D",
"c  c #69483C",
"v  c #68553B",
"b  c #74553A",
"n  c #62572D",
"m  c #6A652C",
"M  c #7C752B",
"N  c #66623E",
"B  c #444445",
"V  c #4C4C4C",
"C  c #484847",
"Z  c #56554C",
"A  c #5C5844",
"S  c #535353",
"D  c #5D5D5D",
"F  c #585757",
"G  c #4F5152",
"H  c #624747",
"J  c #754444",
"K  c #7D594E",
"L  c #695C52",
"P  c #695950",
"I  c #7B654D",
"U  c #676240",
"Y  c #636363",
"T  c #6B6B6B",
"R  c #6A6664",
"E  c #716C69",
"W  c #78766B",
"Q  c #747373",
"!  c #7A7A7B",
"~  c #7B7776",
"^  c #862E2C",
"/  c #8A3535",
"(  c #983535",
")  c #AB3A3A",
"_  c #B53C3E",
"`  c #855D17",
"'  c #857913",
"]  c #816A0F",
"[  c #964E26",
"{  c #D26D33",
"}  c #BB3F40",
"|  c #8E4A47",
" . c #BC4040",
".. c #9A6B49",
"X. c #8B6E51",
"o. c #9C7753",
"O. c #846244",
"+. c #A57653",
"@. c #B17C55",
"#. c #847D7A",
"$. c #827F69",
"%. c #D84B49",
"&. c #D04F4D",
"*. c #ED5151",
"=. c #F95556",
"-. c #E74C4F",
";. c #FB7B42",
":. c #FB736C",
">. c #96890C",
",. c #998B12",
"<. c #9E9018",
"1. c #9E900D",
"2. c #A4950D",
"3. c #AB9C0D",
"4. c #AB9B17",
"5. c #B29E10",
"6. c #B2A20D",
"7. c #BEAD0F",
"8. c #BCAD15",
"9. c #928A38",
"0. c #BCB039",
"q. c #D7931B",
"w. c #C8B50E",
"e. c #D0BF0F",
"r. c #C9B714",
"t. c #D1BF10",
"y. c #E1B31B",
"u. c #D39325",
"i. c #D5A43C",
"p. c #E1A939",
"a. c #DBC811",
"s. c #E5CB15",
"d. c #E6D212",
"f. c #EBD515",
"g. c #F4DB17",
"h. c #FBE514",
"j. c #FAE514",
"k. c #D9C925",
"l. c #EAD826",
"z. c #F0DE3B",
"x. c #FEEA28",
"c. c #F6E336",
"v. c #9D8D41",
"b. c #B7845B",
"n. c #AB825B",
"m. c #AFA54F",
"M. c #868168",
"N. c #A8866C",
"B. c #B78D64",
"V. c #BE9165",
"C. c #A58974",
"Z. c #D09E4B",
"A. c #CCAF4C",
"S. c #C28A62",
"D. c #C59668",
"F. c #F1886A",
"G. c #CFA16F",
"H. c #D2A371",
"J. c #DBA672",
"K. c #DBA875",
"L. c #E3AB78",
"P. c #E5B27C",
"I. c #ECB77F",
"U. c #DECE45",
"Y. c #E1D349",
"T. c #FCED53",
"R. c #DCD06A",
"E. c #FFF279",
"W. c #F2E66E",
"Q. c #848383",
"!. c #8B8B8C",
"~. c #928A8A",
"^. c #939393",
"/. c #9C9C9C",
"(. c #9B9896",
"). c #8E8F90",
"_. c #A0A09F",
"`. c #A9A587",
"'. c #A2A3A2",
"]. c #ACACAC",
"[. c #A9A8A2",
"{. c #B0AFAF",
"}. c #B4B4B4",
"|. c #BBBBBB",
" X c #B8B9B8",
".X c #C5A689",
"XX c #DBB489",
"oX c #CFB08A",
"OX c #E9B884",
"+X c #F4BD83",
"@X c #E2BA92",
"#X c #D2B6A1",
"$X c #D9CF96",
"%X c #FEC689",
"&X c #FFC98A",
"*X c #F7C085",
"=X c #FDCC95",
"-X c #FFD39F",
";X c #F0E696",
":X c #C3C0BD",
">X c #C9C4A4",
",X c #FDD8A9",
"<X c #EFD5B8",
"1X c #F7F0B2",
"2X c #BEBFC1",
"3X c #C3C4C4",
"4X c #CECECE",
"5X c #C8C8C7",
"6X c #CFCFD0",
"7X c #CFD0D0",
"8X c #D0D1D1",
"9X c #DCDCDB",
"0X c #D8D8D8",
"qX c #FFE8C2",
"wX c #DFE0E0",
"eX c #E4E3E3",
"rX c #ECECEC",
"tX c #E7E7E8",
"yX c #F0EFEE",
"uX c #F8F6E9",
"iX c #F3F3F3",
"pX c #FDFDFC",
"aX c #F8F8F7",
"sX c None",
/* pixels */
"sXsXsXsXsXsXsXsXsXsXsXsXsXsXsXsXsXsXsXsXsXsXsXsXsXsXsXsXsXsXsXsXsXsXsXsXsXsXsXsXsXsXsXsXsXsXsXsXsXsXsXsXsXsXsXsXsXsXsXsXsXsXsXsX",
"sXsXsXsXsXsXsXsXsXsXsXsXsXsXsXsXsXsXsXsXsXsXsXsXsXsXsXsXsXsXsXsXsXsXsXsXsXsXsXsXsXsXsXsXsXsXsXsXsXsXsXsXsXsXsXsXsXsXsXsXsXsXsXsX",
"sXsXsXsXsXsXsXsXsXsXsXsXsXsXsXsXsXsXsXsXsXsXsXsXsXsXsXsXsXsXsXsXsXsXsXsXsXsXsXsXsXsXsXsXsXsXsXsXsXsXsXsXsXsXsXsXsXsXsXsXsXsXsXsX",
"sXsXsXsXsXsXsXsXsXsXsXsXsXsXsXsXsXsXsXsXsXsXsXsXsXsXsXsXsXsXsXsXsXsXsXsXsXsXsXsXsXsXsXsXsXsXsXsXsXsXsXsXsXsXsXsXsXsXsXsXsXsXsXsX",
"sXsXsXsXsXsXsXsXsXsXsXsXsXsXsXsXsXsXsXsXsXsXsXsXsXsXsXsXsXsXsXsXsXsXsXsXsXsXsXsXsXsXsXsXsXsXsXsXsXsXsXsXsXsXsXsXsXsXsXsXsXsXsXsX",
"sXsXsXsXsXsXsXsXsXsXsXsXsXsXsXsXsXsXsXsXsXsXsXsXsXsXsXsXsXsXsXsXsXsXsXsXsXsXsXsXsXsXsXsXsXsXsXsXsXsXsXsXsXsXsXsXsXsXsXsXsXsXsXsX",
"sXsXsXsXsXsXsXsXsXsXsXsXsXsXsXsXsXsXsXsXsXsXsXsXsXsXsXsXsXsXsXsXsXsXsXsXsXsXsXsXsXsXsXsXsXsXsXsXsXsXsXsXsXsXsXsXsXsXsXsXsXsXsXsX",
"sXsXsXsXsXsXsXsXsXsXsXsXsXsXsXsXsXsXsXsXsXsXsXsXsXsXsXsXsXsXsXsXsXsXsXsXsXsXsXsXsXsXsXsXsXsXsXsXsXsXsXsXsXsXsXsXsXsXsXsXsXsXsXsX",
"sXsXsXsXsXsXsXsXsXsXsXsXsXsXsXsXsXsXsXsXsXsXsXsXsXsXsXsXsXsXsXsXsXsXsXsXsXsXsXsXsXsXsXsXsXsXsXsXsXsXsXsXsXsXsXsXsXsXsXsXsXsXsXsX",
"sXsXsXsXsXsXsXsXsXsXsXsXsXsXsXsXsXsXsXsXsXsXsXsXsXsXsXsXsXsXsXsXsXsXsXsXsXsXsXsXsXsXsXsXsXsXsXsXsXsXsXsXsXsXsXsXsXsXsXsXsXsXsXsX",
"sXsXsXsXsXsXsXsXsXsXsXsXsXsXsXsXsXsXsXsXsXsXsXsXsXsXsXsXsXsXsXsXsXsXsXsXsXsXsXsXsXsXsXsXsXsXsXsXsXsXsXsXsXsXsXsXsXsXsXsXsXsXsXsX",
"sXsXsXsXsXsXsXsXsXsXsXsXsXsXsXsXsXsXsXsXsXsXsXsXsXsXsXsXsXsXsXsXsXsXsXsXsXsXsXsXsXsXsXsXsXsXsXsXsXsXsXsXsXsXsXsXsXsXsXsXsXsXsXsX",
"sXsXsXsXsXsXsXsXsXsXsXsXsXsXsXsXsXsXsXsXsXsXsXsXsXsXsXsXsXsXsXsXsXsXsXsXsXsXsXsXsXsXsXsXsXsXsXsXsXsXsXsXsXsXsXsXsXsXsXsXsXsXsXsX",
"sXsXsXsXsXsXsXsXsXsXsXsXsXsXsXsXsXsXsXsXsXsXsXsXsXsXsXsXsXsXsXsXsXsXsXsXsXsXsXsXsXsXsXsXsXsXsXsXsXsXsXsXsXsXsXsXsXsXsXsXsXsXsXsX",
"sXsXsXsXsXsXsXsXsXsXsXsXsXsXsXsXsXsXsXsXsXsXsXsXsXsXsXsXsXsXsXsXsXsXsXsXsXsXsXsXsXsXsXsXsXsXsXsXsXsXsXsXsXsXsXsXsXsXsXsXsXsXsXsX",
"sXsXsXsXsXsXsXsXsXsXsXsXsXsXsXsXsXsXsXsXsXsXsXsXsXsXsXsXsXsXsXsXsXsXsXsXsXsXsXsXsXsXsXsXsXsXsXsXsXsXsXsXsXsXsXsXsXsXsXsXsXsXsXsX",
"sXsXsXsXsXsXsXsXsXsXsXsXsXsXsXsXsXsXsXsXsXsXsXsXsXsXsXsXsXsXsXsXsXsXsXsXsXsXsXsXsXsXsXsXsXsXsXsXsXsXsXsXsXsXsXsXsXsXsXsXsXsXsXsX",
"sXsXsXsXsXsXsXsXsXsXsXsXsXsXsXsXsXsXsXsXsXsXsXsXsXsXsXsXsXsXsXsXsXsXsXsXsXsXsXsXsXsXsXsXsXX h I I v O sXsXsXsXsXsXsXsXsXsXsXsXsX",
"sXsXsXsXsXsXsXsXsXsXsXsXsXsXsXsXsXsXsXsXsXsXsXsXsXsXsXsXsXsXsXsXsXsXsXsXsXsXsXsXsXsXsXsX0 X.XX=X=XI.o.v sXsXsXsXsXsXsXsXsXsXsXsX",
"sXsXsXsXsXsXsXsXsXsXsXsXsXsXsXsXsXsXsXsXsXsXsXsXsXsXsXsXsXsXsXsXsXsXsXsXsXsXsXsXsXsXsX= B.,X-X&X%X&X&XS.8 sXsXsXsXsXsXsXsXsXsXsX",
"sXsXsXsXsXsXsXsXsXsXsXsXsXsXsXsXsXsXsXsXsXsXsXsXsXsXsXsXsXsXsXsXsXsXsXsXsXsXsXsXsXsXsXl XXqX=X%X&X&X&XI.v sXsXsXsXsXsXsXsXsXsXsX",
"sXsXsXsXsXsXsXsXsXsXsXsXsXsXsXsXsXsXsXsXsXsXsXsXsXsXsXsXsXsXsXsXsXsXsXsXsXsXsXsXsXsXsX+.@X,X=X%X&X%X&X&XV.sXsXsXsXsXsXsXsXsXsXsX",
"sXsXsXsXsXsXsXsXsXsXsXsXsXsXsXsXsXsXsXsXsXsXsXsXsXsXsXsXsXsXsXsXsXsXsXsXsXsXsXsXsXsX* +.K.%X&X&X&X&X&X&XH.sXsXsXsXsXsXsXsXsXsXsX",
"sXsXsXsXsXsXsXsXsXsXsXsXsXsXsXsXsXsXsXsXsXsXsXsXsXsXsXsXsXsXsXsXsXsXsXsXsXsXsXsXsXsX& ..B.P.P.K.I.&X%X%XH.sXsXsXsXsXsXsXsXsXsXsX",
"sXsXsXsXsXsXsXsXsXsXsXsXsX: < B V V C < < B V V B sXsXsXsXsXsXsXsXsXsXsXsXsXsXsXsXsXo q 0 n.O.L X.V.I.P.o.sXsXsXsXsXsXsXsXsXsXsX",
"sXsXsXsXsXsXsXsXsXsXR ! ~ '.8XeXrXiXeX0X5X4X9XtX|.! ~ Y O sXsXsXsXsXsXsXsXsXsXsXsXsX  * ..D.@XtXT P +.b.8 sXsXsXsXsXsXsXsXsXsXsX",
"sXsXsXsXsXsXsXsXS ^.0XaXaXaXpXpXpXpXpXpXiXrXrXrXpXaXaXwX/.!.B sXsXsXsXsXsXsXsXsXsXsXsX* ..J.=X,X.XoXB.n.* sXsXsXsXsXsXsXsXsXsXsX",
"sXsXsXsXsXsXsXC  XtXwXwXeXeXtXpXpXpXpXpXpXaXaXiXaXpXpXpXpXaX5X!.sXsXsXsXsXsXsXsXsXsXsXsX* +.*X&X&X&X%XJ.> sXsXsXsXsXsXsXsXsXsXsX",
"sXsXsXsXsXsXsX^.0X0XwXiXaXaXaXpXiXtXeX9X6X5X5X5X8XeXrXaXpXpXpXrX!.sXsXsXsXsXsXsXsXsXsXsX  6 J.%X*X*XI.V.9 sXsXsXsXsXsXsXsXsXsXsX",
"sXsXsXsXsXsXF }.0XrXpXpXpXyX0X4X|.|. X X}.}.}.}.}.'.}.3X8X0XrXpXtXQ.sXsXsXsXsXsXsXsX  sX  q @.J.P.P.H.v sXsXsXsXsXsXsXsXsXsXsXsX",
"sXsXsXsXsXsXQ.eXyXpXeX5X3X|. X|.|.5X8X4X4X4X4X4X5X|.|.|.{.'. X5X0X9XQ.sXsXsXsXsXsXF ! !.G x b.@.O.v 8 O sXsXsXsXsXsXsXsXsXsXsXsX",
"sXsXsXsXsXO Q.tX9X5X{._.{.3X4X6X8X8X8X4X4X8X8X8X4X6X6X8X5X3X2X2X X|. X/.G ; ; < /.|.9XiX5XL +.S.0 h # Q ^.B sXsXsXsXsXsXsXsXsXsX",
"sXsXsXsXsX, ).(.1 G Q '.5X7X6X6X4X8X4X8X4X8X6X4X4X8X8X4X8X8X8X8X4X5X3XQ.Q.'.|.3XrXiXiX4X4X~ N.S.b ..N.9XwX! sXsXsXsXsXsXsXsXsXsX",
"sXsXsXsXsXsX+ sXsXsX+ Q 5X8X4X7X4X4X8X4X8X6X4X6X4X8X4X4X4X4X8X4X4X4X4X}.Q T ^.4XwXrX9XQ /./.:X#X.XN.<X4X5XS sXsXsXsXsXsXsXsXsXsX",
"sXsXsXsXsXsXsXsXsXsXsXsX^.4X6X6X8X4X4X4X4X4X6X4X8X4X4X8X4X8X4X4X4X4X8X8X5X!., Z W [.0X{.5X:XrXpXrX/.eX$X>X~ sXsXsXsXsXsXsXsXsXsX",
"sXsXsXsXsXsXsXsXsXsXsXsXsX).5X5X8X8X8X8X8X8X4X6X4X8X8X4X4X8X8X8X8X4X4X8X5X'.Z d 0.M Z A `.;X1XuXuX7XuXW.m B sXsXsXsXsXsXsXsXsXsX",
"sXsXsXsXsXsXsXsXsXsXsXsXsX1 !.{.3X3X3X3X4X6X6X4X4X4X8X8X4X8X4X4X4X7X7X7X4X/.A A.l.p a >.8.8.k.z.1XtX1Xk.% sXsXsXsXsXsXsXsXsXsXsX",
"sXsXsXsXsXsXsXsXsXsXsXsXsXsXD /./._./._.}. X3X6X8X4X4X8X8X4X4X8X7X7X7X7X8X!.s z.4.% 1.7.4.>.a.d.;XeX;X>.u sXsXsXsXsXsXsXsXsXsXsX",
"sXsXsXsXsXsXsXsXsXsXsXsXsXsX: !././././././.[.5X8X4X4X8X8X8X4X8X4X7X7X7X0X).f d.M Y m >.8.3.d.j.T.R.U.s p sXsXsXsXsXsXsXsXsXsXsX",
"sXsXsXsXsXsXsXsXsXsXsXsXsXsX; !././././././.'.3X8X8X4X4X4X4X8X4X4X7X4X7X4XQ.v.k.N 2X/.g s <.k.f.s.s.s.s p 4 sXsXsXsXsXsXsXsXsXsX",
"sXsXsXsXsXsXsXsXsXsXsXsXsXsXsXS /././.'.].'.|.6X4X8X8X4X4X8X8X4X7X4X7X8X{.J F.i.z 3X8X!.1 L $.M.Z.q.Z.z ` r sXsXsXsXsXsXsXsXsXsX",
"sXsXsXsXsXsXsXsXsXsXsXsXsXsXsXB (.'.{.2X4X4X6X6X4X8X4X8X4X8X8X4X4X8X8X8X].J :.&.H 3X7X).g 9.m.m.i.q.p.n t t o sXsXsXsXsXsXsXsXsX",
"sXsXsXsXsXsXsXsXsXsXsXsXsXsXsXC (. X4X6X4X8X6X6X4X4X8X4X4X4X4X4X8X4X4X8X].L F.%.H 2X4XQ M c.h.j.y.y.g.5.6 ( # sXsXsXsXsXsXsXsXsX",
"sXsXsXsXsXsXsXsXsXsXsXsXsXsXsX; Q.6X4X6X7X4X6X4X8X4X4X8X8X8X4X8X4X4X8X8X{.H -._ y #.}.N r.;Xx.g.a.a.f.s.i _ 3 sXsXsXsXsXsXsXsXsX",
"sXsXsXsXsXsXsXsXsXsXsXsXsXsXsXsXT 5X6X6X4X4X7X4X8X8X4X4X4X7X6X6X4X8X4X8X].y *.*.-./ #.j U.E.x.d.6.6.a.g.] ^ 3 sXsXsXsXsXsXsXsXsX",
"sXsXsXsXsXsXsXsXsXsXsXsXsXsXsXsXsX! 5X6X8X8X4X4X|.|.5X6X6X8X7X7X8X4X7X8X].w %.*.) J Y d c.x.h.3.% >.e.g.7.5 3 sXsXsXsXsXsXsXsXsX",
"sXsXsXsXsXsXsXsXsXsXsXsXsXsXsXsXsXsX!  X5X|.].].'.'.2X8X8X5X5X3X3X4X8X8X2XE r &.( R Z 2.j.j.g.' o 3.j.d.>.@ # sXsXsXsXsXsXsXsXsX",
"sXsXsXsXsXsXsXsXsXsXsXsXsXsXsXsXsXsXsX1 1 1 Q '.].3X5X5X'.D < < C (.:X7X8X}.Q H L _.U 6.a.e.3.N k a 2.2.>.@ sXsXsXsXsXsXsXsXsXsX",
"sXsXsXsXsXsXsXsXsXsXsXsXsXsXsXsXsXsXsXsX  ; Y ~ !.^.Q.Y ; sXsXsXsX; G  X6X X'.].|.#.4.k.t.3.i T E u >.3.1.sXsXsXsXsXsXsXsXsXsXsX",
"sXsXsXsXsXsXsXsXsXsXsXsXsXsXsXsXsXsXsXsXsXsXsXO sXsXO sXsXsXsXsXsXsXsXR {.'./.3X8XQ 4.T.l.w.j {.[.j 3.w.p sXsXsXsXsXsXsXsXsXsXsX",
"sXsXsXsXsXsXsXsXsXsXsXsXsXsXsXsXsXsXsXsXsXsXsXsXsXsXsXsXsXsXsXsXsXsXsXsXD Q Q.6X].K u.c.g.1.W 5X2Xz 5.3.- sXsXsXsXsXsXsXsXsXsXsX",
"sXsXsXsXsXsXsXsXsXsXsXsXsXsXsXsXsXsXsXsXsXsXsXsXsXsXsXsXsXsXsXsXsXsXsXsXsX+ T 8X).I F.;.{ l '.6X X9 [ [ # sXsXsXsXsXsXsXsXsXsXsX",
"sXsXsXsXsXsXsXsXsXsXsXsXsXsXsXsXsXsXsXsXsXsXsXsXsXsXsXsXsXsXsXsXsXsXsXsXsX  T 5XY | :.*.| ~.5X X^.w } 7 sXsXsXsXsXsXsXsXsXsXsXsX",
"sXsXsXsXsXsXsXsXsXsXsXsXsXsXsXsXsXsXsXsXsXsXsXsXsXsXsXsXsXsXsXsXsXsXsXsXsX  Y ].e ( %.| ~.5X[.Y G > ( $ sXsXsXsXsXsXsXsXsXsXsXsX",
"sXsXsXsXsXsXsXsXsXsXsXsXsXsXsXsXsXsXsXsXsXsXsXsXsXsXsXsXsXsXsXsXsXsXsXsXsXsXB Q.w } r ! }.! B .   . 3 2 sXsXsXsXsXsXsXsXsXsXsXsX",
"sXsXsXsXsXsXsXsXsXsXsXsXsXsXsXsXsXsXsXsXsXsXsXsXsXsXsXsXsXsXsXsXsXsXsXsXsXsXsX< (  .$ , , ; sXsXsX. 7 ^ $ X sXsXsXsXsXsXsXsXsXsX",
"sXsXsXsXsXsXsXsXsXsXsXsXsXsXsXsXsXsXsXsXsXsXsXsXsXsXsXsXsXsXsXsXsXsXsXsXsXsXsXr -./ X sXsXsXsXsXsX  2 ( ^ r sXsXsXsXsXsXsXsXsXsX",
"sXsXsXsXsXsXsXsXsXsXsXsXsXsXsXsXsXsXsXsXsXsXsXsXsXsXsXsXsXsXsXsXsXsXsXsXsXsXsX) =.sXsXsXsXsXsXsXsXsXsXsXsXsXsXsXsXsXsXsXsXsXsXsX",
"sXsXsXsXsXsXsXsXsXsXsXsXsXsXsXsXsXsXsXsXsXsXsXsXsXsXsXsXsXsXsXsXsXsXsXsXsXsXsXsXsXsXsXsXsXsXsXsXsXsXsXsXsXsXsXsXsXsXsXsXsXsXsXsX",
"sXsXsXsXsXsXsXsXsXsXsXsXsXsXsXsXsXsXsXsXsXsXsXsXsXsXsXsXsXsXsXsXsXsXsXsXsXsXsXsXsXsXsXsXsXsXsXsXsXsXsXsXsXsXsXsXsXsXsXsXsXsXsXsX",
"sXsXsXsXsXsXsXsXsXsXsXsXsXsXsXsXsXsXsXsXsXsXsXsXsXsXsXsXsXsXsXsXsXsXsXsXsXsXsXsXsXsXsXsXsXsXsXsXsXsXsXsXsXsXsXsXsXsXsXsXsXsXsXsX",
"sXsXsXsXsXsXsXsXsXsXsXsXsXsXsXsXsXsXsXsXsXsXsXsXsXsXsXsXsXsXsXsXsXsXsXsXsXsXsXsXsXsXsXsXsXsXsXsXsXsXsXsXsXsXsXsXsXsXsXsXsXsXsXsX",
"sXsXsXsXsXsXsXsXsXsXsXsXsXsXsXsXsXsXsXsXsXsXsXsXsXsXsXsXsXsXsXsXsXsXsXsXsXsXsXsXsXsXsXsXsXsXsXsXsXsXsXsXsXsXsXsXsXsXsXsXsXsXsXsX",
"sXsXsXsXsXsXsXsXsXsXsXsXsXsXsXsXsXsXsXsXsXsXsXsXsXsXsXsXsXsXsXsXsXsXsXsXsXsXsXsXsXsXsXsXsXsXsXsXsXsXsXsXsXsXsXsXsXsXsXsXsXsXsXsX"
};
