/* XPM */
static char *result[] = {
/* columns rows colors chars-per-pixel */
"16 16 63 1 ",
"  c #5D3634",
". c #72411E",
"X c #7C5B13",
"o c #695958",
"O c #7B7B7B",
"+ c #89783E",
"@ c #945651",
"# c #9B764A",
"$ c #807E6E",
"% c #9D7A60",
"& c #887773",
"* c #B27B6F",
"= c #AB777A",
"- c #A79813",
"; c #908738",
": c #B9AC3D",
"> c #BFB23C",
", c #C5A220",
"< c #C0B323",
"1 c #A4805F",
"2 c #AB9850",
"3 c #B4965C",
"4 c #9E8574",
"5 c #B28C67",
"6 c #BD9569",
"7 c #B8956E",
"8 c #A89F71",
"9 c #CBBB5D",
"0 c #C49C72",
"q c #DAAD7D",
"w c #E9B77F",
"e c #878689",
"r c gray55",
"t c #929186",
"y c #908F92",
"u c gray61",
"i c #ADAB91",
"p c #BCB098",
"a c gray65",
"s c gray66",
"d c #AAAAAA",
"f c gray67",
"g c #B4B4B4",
"h c gray71",
"j c #B9B9B9",
"k c #BABBBB",
"l c #BBBBBB",
"z c #C0B495",
"x c #C2C2C3",
"c c #C6C6C6",
"v c #C8C8C8",
"b c #CBCBCB",
"n c gray80",
"m c #CDCDCD",
"M c #CECDCD",
"N c #CECECE",
"B c gray81",
"V c #CECED0",
"C c #D0D0D0",
"Z c gray82",
"A c #D5D4D4",
"S c gray85",
"D c None",
/* pixels */
"DDDDDDDDDDDDDDDD",
"DDDDDDDDDDDDDDDD",
"DDDDDDDDDDDDDDDD",
"DDDDDDDDDDDDDDDD",
"DDDDDDDDDDD76DDD",
"DDDDDDDDDDDqwDDD",
"DDgbCccDDDD50DDD",
"DrnSABBCfDe%1DDD",
"DDDjmBNMxtizp$DD",
"DDDOalBBV8;>9DDD",
"DDDDsvCZb*4:,.DD",
"DDDDudjhk=#<-XDD",
"DDDDDDDDDy32+DDD",
"DDDDDDDDDo@& DDD",
"DDDDDDDDDDDDDDDD",
"DDDDDDDDDDDDDDDD"
};
