/* XPM */
static char *result[] = {
/* columns rows colors chars-per-pixel */
"32 32 223 2 ",
"   c #1A0C0D",
".  c #3F3A02",
"X  c #3E2A1D",
"o  c #581E1E",
"O  c #4C3323",
"+  c #682322",
"@  c #702626",
"#  c #6C3720",
"$  c #5D5009",
"%  c #675F18",
"&  c #6E600B",
"*  c #6F6509",
"=  c #694F37",
"-  c #76553A",
";  c #6D693B",
":  c #474848",
">  c #484848",
",  c #554C43",
"<  c #515152",
"1  c gray32",
"2  c gray33",
"3  c #664140",
"4  c #7A5A40",
"5  c #7F5B40",
"6  c #665151",
"7  c #625453",
"8  c #6C694E",
"9  c #787146",
"0  c #7A7755",
"q  c #7F7B57",
"w  c #606161",
"e  c #646464",
"r  c #666869",
"t  c #6C6C6C",
"y  c #6F7070",
"u  c #717272",
"i  c gray46",
"p  c #797979",
"a  c gray49",
"s  c #7D7E7E",
"d  c #7E7E7E",
"f  c #833F25",
"g  c #8F3A3A",
"h  c #AF3C3C",
"j  c #8B7F0D",
"k  c #886018",
"l  c #916618",
"z  c #8D5454",
"x  c #885855",
"c  c #A0474A",
"v  c #8D6C4B",
"b  c #956D4B",
"n  c #9D734F",
"m  c #807D5E",
"M  c #A77550",
"N  c #856061",
"B  c #82736A",
"V  c #967777",
"C  c #9A7173",
"Z  c #A17F67",
"A  c #C54F4D",
"S  c #D34545",
"D  c #C85653",
"F  c #C6704A",
"G  c #988B0B",
"H  c #9F920B",
"J  c #978B14",
"K  c #93871A",
"L  c #9A8E1C",
"P  c #B7A81B",
"I  c #8E862F",
"U  c #A5822F",
"Y  c #B58B2F",
"T  c #AA9B28",
"R  c #AC9C2C",
"E  c #A1983A",
"W  c #C3B20F",
"Q  c #C7B713",
"!  c #CFB415",
"~  c #D8A22F",
"^  c #C1B42E",
"/  c #DDCB11",
"(  c #DAC91A",
")  c #E0C216",
"_  c #E2CE11",
"`  c #DAC721",
"'  c #E3D334",
"]  c #EBDB3E",
"[  c #F6E227",
"{  c #868049",
"}  c #8B875B",
"|  c #A99E4E",
" . c #A9845B",
".. c #9C846B",
"X. c #9E9964",
"o. c #93897B",
"O. c #908E7C",
"+. c #9C887E",
"@. c #A88867",
"#. c #B38B60",
"$. c #B88E63",
"%. c #BF9266",
"&. c #E69940",
"*. c #C0B442",
"=. c #C09267",
"-. c #D09A69",
";. c #C8BE65",
":. c #D3A172",
">. c #E4B37C",
",. c #E8B37C",
"<. c #EAD441",
"1. c #808080",
"2. c #848382",
"3. c #888888",
"4. c gray54",
"5. c gray55",
"6. c #8D8D8D",
"7. c #9A8380",
"8. c #9E8683",
"9. c #959486",
"0. c #919090",
"q. c gray57",
"w. c #939393",
"e. c gray59",
"r. c #979797",
"t. c #9F9C90",
"y. c #989897",
"u. c gray60",
"i. c #9B9B9B",
"p. c #9A9C9D",
"a. c #9D9D9D",
"s. c #9E9E9D",
"d. c #9D9E9F",
"f. c #9F9F9F",
"g. c #A38484",
"h. c #A0948A",
"j. c #B59C82",
"k. c #BA9E8B",
"l. c #A1A1A2",
"z. c #A2A2A2",
"x. c gray64",
"c. c #A6A4A3",
"v. c #A3A4A5",
"b. c gray65",
"n. c #A7A6A7",
"m. c #AAA6A1",
"M. c #ABA6A6",
"N. c #ABABA3",
"B. c #A8A8A9",
"V. c #ABABA9",
"C. c #A8A9AA",
"Z. c #A9A9AA",
"A. c #AAABAC",
"S. c #AEAEAE",
"D. c #AEAFAF",
"F. c #B1B1B1",
"G. c #B2B2B2",
"H. c #B7B7B7",
"J. c gray73",
"K. c #BBBBBB",
"L. c gray",
"P. c #C3BF9A",
"I. c #EAB982",
"U. c #E0B788",
"Y. c #E7BB8A",
"T. c #F1BE83",
"R. c #F4BE83",
"E. c #C3B6AC",
"W. c #FBC588",
"Q. c #FFCA8B",
"!. c #E7C194",
"~. c #F5C895",
"^. c #FFD094",
"/. c #DFD8AB",
"(. c #EFEAB7",
"). c #BFC0C0",
"_. c gray76",
"`. c #C3C3C3",
"'. c gray77",
"]. c #C5C4C4",
"[. c #C4C4C5",
"{. c #C5C5C5",
"}. c #C6C6C6",
"|. c #C6C7C7",
" X c gray78",
".X c #C8C7C6",
"XX c #C8C7C7",
"oX c #C7C8C8",
"OX c gray79",
"+X c #CBCBCB",
"@X c #CBCCCC",
"#X c gray80",
"$X c #CDCDCD",
"%X c #CDCECF",
"&X c #CECECE",
"*X c gray81",
"=X c #CECFD0",
"-X c #CFD0D0",
";X c #CFD1D1",
":X c #D0D0D0",
">X c gray82",
",X c #D1D1D2",
"<X c #D2D2D2",
"1X c gray84",
"2X c #D7D6D6",
"3X c #DDDAD3",
"4X c #D7D7D8",
"5X c #D8D8D8",
"6X c #DDDEDF",
"7X c gray87",
"8X c #F4EFCE",
"9X c #E3E2E2",
"0X c #E7E7E7",
"qX c gray91",
"wX c #E9E8E8",
"eX c #EFEFEF",
"rX c gray94",
"tX c #F1F1F0",
"yX c #F1F1F1",
"uX c #F8F8F8",
"iX c gray99",
"pX c white",
"aX c None",
/* pixels */
"aXaXaXaXaXaXaXaXaXaXaXaXaXaXaXaXaXaXaXaXaXaXaXaXaXaXaXaXaXaXaXaX",
"aXaXaXaXaXaXaXaXaXaXaXaXaXaXaXaXaXaXaXaXaXaXaXaXaXaXaXaXaXaXaXaX",
"aXaXaXaXaXaXaXaXaXaXaXaXaXaXaXaXaXaXaXaXaXaXaXaXaXaXaXaXaXaXaXaX",
"aXaXaXaXaXaXaXaXaXaXaXaXaXaXaXaXaXaXaXaXaXaXaXaXaXaXaXaXaXaXaXaX",
"aXaXaXaXaXaXaXaXaXaXaXaXaXaXaXaXaXaXaXaXaXaXaXaXaXaXaXaXaXaXaXaX",
"aXaXaXaXaXaXaXaXaXaXaXaXaXaXaXaXaXaXaXaXaXaXaXaXaXaXaXaXaXaXaXaX",
"aXaXaXaXaXaXaXaXaXaXaXaXaXaXaXaXaXaXaXaXaXaXaXaXaXaXaXaXaXaXaXaX",
"aXaXaXaXaXaXaXaXaXaXaXaXaXaXaXaXaXaXaXaXaXaXaXaXaXaXaXaXaXaXaXaX",
"aXaXaXaXaXaXaXaXaXaXaXaXaXaXaXaXaXaXaXaXaXaXaXaXaXaXaXaXaXaXaXaX",
"aXaXaXaXaXaXaXaXaXaXaXaXaXaXaXaXaXaXaXaXaXaX@.Y.I.#.aXaXaXaXaXaX",
"aXaXaXaXaXaXaXaXaXaXaXaXaXaXaXaXaXaXaXaXaX4 !.^.Q.T.v aXaXaXaXaX",
"aXaXaXaXaXaXaXaXaXaXaXaXaXaXaXaXaXaXaXaXaX5 :.>.R.W. .aXaXaXaXaX",
"aXaXaXaXaXaX2.u.B.a.w.f.q.aXaXaXaXaXaXaXaXX n j...%.= aXaXaXaXaX",
"aXaXaXaXn.4X0XuXpXiXyXeXyXqX{.r.aXaXaXaXaXaXb ~.U.=.aXaXaXaXaXaX",
"aXaXaX3.7XtXrX9X1X:X.X'.|.5XwX0Xb.aXaXaXaXaXO -.,.$.aXaXaXaXaXaX",
"aXaXaXZ.2X_._.{. X#X#X#X}.`.K.].XX0.: > 6.A.B M - , r aXaXaXaXaX",
"aXaXaXt 2 p [.>X:X*X*X*X:X:X*X&X@XG.1.l.6X%Xc.k.Z E.y.aXaXaXaXaX",
"aXaXaXaXaXaXu.oX*X*X:X*X*X*X*X*X:X*Xv.8 X.O.P.8X3X/.m aXaXaXaXaX",
"aXaXaXaXaXaXaX6.F.G.).+X*X*X*X*X*X>XV.E K j P ' (.;.. aXaXaXaXaX",
"aXaXaXaXaXaXaXe i.i.a.H.:X*X*X*X*X,Xm.R } { J ` <.T $ aXaXaXaXaX",
"aXaXaXaXaXaXaX1 e.S.J. X:X*X*X*X*X-X8.F h.v.; | ~ U # aXaXaXaXaX",
"aXaXaXaXaXaXaXaXz.*X:X:X:X:X*X*X*X=X7.A C 9.*.[ ) ! f aXaXaXaXaX",
"aXaXaXaXaXaXaXaX5.OX<X#X'.$X>X>X>X;XV S c 9 ] ( G / k aXaXaXaXaX",
"aXaXaXaXaXaXaXaXaXi a u.S.L.x.4.s.|.M.z N I _ L % W & aXaXaXaXaX",
"aXaXaXaXaXaXaXaXaXaXaX2 u w aXaXaXd D.C.t.^ Q q 0 H * aXaXaXaXaX",
"aXaXaXaXaXaXaXaXaXaXaXaXaXaXaXaXaXaX< d.+.&.Y N.o.l aXaXaXaXaXaX",
"aXaXaXaXaXaXaXaXaXaXaXaXaXaXaXaXaXaXaXs x D g.p.6 @ aXaXaXaXaXaX",
"aXaXaXaXaXaXaXaXaXaXaXaXaXaXaXaXaXaXaX7 g 3 y aX  o aXaXaXaXaXaX",
"aXaXaXaXaXaXaXaXaXaXaXaXaXaXaXaXaXaXaXaXh aXaXaXaX+ aXaXaXaXaXaX",
"aXaXaXaXaXaXaXaXaXaXaXaXaXaXaXaXaXaXaXaXaXaXaXaXaXaXaXaXaXaXaXaX",
"aXaXaXaXaXaXaXaXaXaXaXaXaXaXaXaXaXaXaXaXaXaXaXaXaXaXaXaXaXaXaXaX",
"aXaXaXaXaXaXaXaXaXaXaXaXaXaXaXaXaXaXaXaXaXaXaXaXaXaXaXaXaXaXaXaX"
};
