/* XPM */
static char *result[] = {
/* columns rows colors chars-per-pixel */
"128 128 74 1 ",
"  c #140700",
". c #170800",
"X c #1C0C00",
"o c #1F1000",
"O c #210F01",
"+ c #241101",
"@ c #2B1502",
"# c #2E1803",
"$ c #301702",
"% c #341A03",
"& c #3B1E03",
"* c #351B08",
"= c #3C1E08",
"- c #3E2004",
"; c #3E2009",
": c #461E05",
"> c #481F06",
", c #401F08",
"< c #452304",
"1 c #4A2505",
"2 c #4D2904",
"3 c #44240A",
"4 c #4B260B",
"5 c #4D290C",
"6 c #512707",
"7 c #522B05",
"8 c #582F05",
"9 c #512708",
"0 c #542B0A",
"q c #5A2E0A",
"w c #573005",
"e c #583005",
"r c #56300B",
"t c #5D310B",
"y c #4E2B10",
"u c #552E11",
"i c #582F11",
"p c #563012",
"a c #5C3213",
"s c #5F3815",
"d c #63350C",
"f c #68370C",
"g c #66380E",
"h c #6B3B0E",
"j c #723E0F",
"k c #623614",
"l c #653916",
"z c #6B3B16",
"x c #663B18",
"c c #6C3E18",
"v c #723E14",
"b c #713F18",
"n c #76400F",
"m c #79410F",
"M c #6F4011",
"N c #6E401A",
"B c #754211",
"V c #7A4612",
"C c #7D4913",
"Z c #74431B",
"A c #7A451B",
"S c #77481E",
"D c #79491F",
"F c #7D4C21",
"G c #804611",
"H c #834C14",
"J c #8A4E14",
"K c #80471B",
"L c #914F13",
"P c #8B5116",
"I c #8F5418",
"U c #935215",
"Y c #804F23",
"T c #835023",
/* pixels */
"+Xoo+###%#####%%####O++@@@##+####%%%##@+++++oo+#*;;;-;;***###@+O+Xo#%-;;--%;#---*&%$++#@#####%%-#---#-#@@@+ooo#*;;334;34;;*#**++",
"+3gBVCCHCVBBMhhftt773@-<<---<<<<22222ww222-o#ypsNNNZNNNNZNxcxxu=+0MVCPCHCCVVMMgMdtq9<$--<<-<-11111222ww277-o#paxNNNFZZZZNFZZSxa;",
"rIPPPPPHHHCVMMghdq922:--<1<11227w2w2wwwww7-oyNNFNNSZZZSNZFFFTFx5sIPHHHHHHCCCMMggfq916:<<<<<122222w2www2ww1-XpNNNNNNSbZZbSSZYFDzu",
"MHCHCCHHHHCCnMMhfq911<<1<12w7727222222227<-#xNNNxxkxzZDAAZZFZZxaMPCHHHHHHHHCnMMMf091>><<12772w222222222271-*NNFNxxkkzZAKASZDZNxa",
"MHCHHPPPIPPHHHVHVq11:><122w222112<22<2222<-#NFZNzlkkzBAbZZZZbclunCCHHHHPIUPHHHCJBq1>:<<1177721222<<222122<-*NFFcxkklzvbAZZZZvblu",
"gCCCCHCCUIHCHCHJCd4>>>1122222111<<<<<<2<1<--ZFFZzllzzvbAZZZZbckuMVCCCHCHUPCCHCCJVd9><<12222722<1-2<<112<2<--FFFZxxzzlbAAZZZZNxki",
"sVVCCVVCCCVVCCHPBd9>>><1222221<<<2<-2<121<--NNZNbbzkzbAAFcbbczliznVCCVVCCCVVCCHPVd61>:11222221--2<-<<2<2<<&;xNFZAZlkhvbZZZZcczki",
"tnBVCVVVCVBCCHCHGq9>>>11222111<<2<-2<<<11---NNNFAZczcccbcccczclihMnCCCVVCVVCCHCHGq1>::11222211<12<-2<<<<<--=xxZZAZZcccbbccccxcla",
"tMMVHJJJHGGmVBCHj81>::12222<22-<<<<<<112<<&*kxxcZZZZvcccvbbcbclighjVJJLJHHGVVVCHfq1>::2222<2111<<<<<<<111<--axzcZZZbvzcbBbbbbbki",
"7gMnCHLULJGCHCVnt96>:1212221<12<11<<<<<1<<&&pkzzbbbbzlzxvbbbvvlirdgBmGJULGVVCCnMd91>::12222<11<<1<-2<<1<<-%%sklzbbcccxxzbbbvbzli",
"1teghzjjntnnhhfd891>::111111<2<2<<1<111<&,%$skxllzzxxzzzlzvblllu0dqghhjzMtMnhggtq69>>:<1<212<11<<22<<1<<--%%akllxzzzzzxxlzbzlzk0",
"<trtghfgghttqqqq9q6>1,%&1<<<-<<-<<<<<---<&*+uuasakkkkxxxzlzblli32qqthhggfftt7etwq96>>:$&--<<<-<<<<--<,,,--#+uipakakakkkxllzclku4",
"3qqqdggdteqq0qq9966>6&+%--------<&&&&===%#OO4yyyu0upuppaiapkiu5,:qqqdgdddqqqqqq707916&+$----<-<<---&&&=*$#OO5uuy0uuuppppiaiau9>,",
"%q0qqtttttqqqqq7qqq61#+###%-----%$$#++OOXXOX*4444434yuu5543,===@#09qqtqqqqqqq0q977991#++##%%%%%%##+++XOXXXXX#;333333454333;;,=*@",
"+&&<6909511211611,&&##%$##%#@@ooOX.XXOO@*@+$##@@@++++@+@@###$#@+#&=119002:,11111<&%&$$-%%%%##@++o.ooO@*#*#****##@#+Oo#4rlhMMBzlg",
"hggddqq92$#,&&&,&&&:1111222211<#X*yukzccccZbZxxkkxa4+@ulvCGHHCVBhhhffqq92$#<&,,&--<<1122227w221#o;paxNcZZZZbZZcxzcl5#MPPPPPHPHGC",
"Vnhhfdq921-<<<<111112w22wwwwww2%+sxNFNZZZZZZZDAFTFDk4BPPHPHHHHCVVnMhhd7661:<<<<11112227wwwwww22#+xxcFZZbZZZZZZZFYFFprPHHHCHHHHCC",
"Vvhhjd991<<<<1227777222ww222221%*NNFxxxzzcZADAZFFZZspCHHHHHHHHHHVMhhjd91>1,<<12777w2w2222222w21%;NNFxzllxcAAAAZFFZbalCHHHPJJHPPH",
"HHCVGf91>><<127772222222122222<%4FFcxxkakbAAAZZZNcNaaVHHHJHJPUPHHHCCGhq><><<127722122111<222121%yFFczlkklbAbZZZbZbcpkCCCCHHHPUPH",
"HHHHJBq>>><11227221<<<<<<1<2111%yFFSZxlzzzbZZZZZZczapVVCCHHCJUJHHHCHJvq1:><112722211<<112<<111<%yFFFNllchlbAAZFZbccatVBCCCVVHHHB",
"CCCHHjq2>>><2227221<<<<<<2<22<<-ySNFZbbzkzbKAZZbbcxaaBVCCCBCCHCVVHHHHjq2>>11122722<<<1<-<1<2<<<%yFcFbbblkzbKbZZbcclakvnVCCVCVCBV",
"CHHHPj01>><1122211<<<2<-<<<<<<-%ycNZZAbxzbcbbccbcczkrMjBCCVCVCBBCCHCPv0>::>1222222<<<1<<1<<1<<<&ycccFAZxbzcbbbcccczkdhvBGHHHCCCV",
"VVVHHf7>::122221111<<<-<<<212---3xzcZZZZbbcbbbcbcczkahhnCJJJHHHCVVVHGg7>:,122221<2<<<<-1<<111<<%4xxcbZZbbbccbbbcxbckqghjCHUUULHC",
"CCCVjq9>:,122211111<<22<<<<<1<<#4kkzbbbcbzllcvbbbvzs0dhzVGHUULGGCCCVhq91:<1222112<2-22<<<<11<<<%3kxxbbbbczlzzbbbbbckuttgjjmmGjhm",
"BMhhdq91>>>11111111<<11<2<11---$;xxxxzzzzzzxzlzNzzlk9qqdhhzjjhdjjhhgtq7>>>1111<1<<2<1<11121<<&&$;kkxxzzzzlzzzxzbclza9qqtgfffgfgd",
"t0qq7991>>&&<<<<-<<-<<<-<--<---@*ppsskklkllzxzzNblku,qqqdhfhgffdt0ttq966>>%&<<<<<<<<<<<-----<&&+*ppkakkkkllllzzcczk93qqedggfddqq",
"r7tq69q116##%&<<<-----------&%#X#p5u0uuuuiiatsaakiu5=9qqtggdddqqq7q7997416$@%&<,----<-------&$#X#pyuuuuuuiuaiiikiu55&0qqqdttqqqq",
"qqqq9qq991+@#$%&-------###+++O+X+455444y5uyuu554>,,=O>qqqttdtqqqqqqqq9q96>+O#$$%----%%%#+++++XXX+333334355y0yyy,,,,&O*3<47qqqqq9",
"631<6>&,%+@++@@#@+@++o    .XXXXO++@#$$$#+$&*#####+#@+&3,12925231<>3111=,*@$*###@@++++...XXo+++++++#***#@+#*%%####@@@########+#++",
"+*3yqiaaaasssa55y5;#.-ygMBZCBBhgggttq091*+&&-----<-<111<1221<1%o+3yyklxlczcczxsksp4#o3sMBVCCCZBBhhfftq74&@&&----:3<<1222277121&O",
";kxNFAAZASAZZSSFFFN4rPPPPHHHHHCVBjhhgq966&<<<<<1<1222777wwwww2-.uxcFFZZFZZZZZDDTFDN4aPPPPPHPHCCBBMhfdq962&-<<<<111222227www777&X",
"sxZZxcccNNZADZSFSZNpZPCPCCHHHHCCjhzhfq61><<<122777777277772771-#xNFcllzzcZAAAZAFSSx0BPCHCCHHHHCCBhhjf9911<<<12777777w277727771&#",
"NFSxxkkkxZKKAZZZbbluvHPHHHHPPPHHHCBHv01>>><1222722222222<22221-%FFZczkkkzAAAZZZZbckpBHCPPHJPPPHHHCVHMq1<>:<11772222122<222222<--",
"SFZSzlkzzbbbZZZZbcluzCCCHHHJUUHHPCHPVd1>>>12227222-<2-<12<2<21--FFFZlklzzbbZZZZZcckpBVCCHGGHUUHHPHHPVt2>::<2227221111<<<<<2<<<-;",
"SZFSbzzllvKAZZZbbclihmVCCVmCHCVVHCHHBd9>>><1272222<<<<-<<22<1--;xNFZbbzklvAAZZbbbxk0MBVCCnZHHCVVCCPHvd6>1:11227211<-<<<-22<2----",
"xxZSAbzlzzbbZbNbcclilnBCCVVVCCBCCHHHGq1>>>112222<2<<2<<<<<-2----xcbZFZczzbcZcZbbccxphBnCCVVCVVBCCHVPCq1>:111222111<121-2-<<2<--;",
"kxbZZZZZbccccbzzcclidvjVHHJHCCVVVVCHne>>,<22222111<<<<<<<222----kccbZZZbbbbbbbzcczxigvjCHPJHHCCmVVGHh71>::1222112<<<1<<<-212<---",
"skxcZZbbbczzZbbbvblithhVHPUUUJGCCCCnt01>,<2222212<<<11<<<-<2<--#skxcZbbccllzbbbbbbkitfhBCHUULJGCCCVvd91>::22221<111<2<<<<<<2<---",
"akxxzzzzzxzlzzbbzlxp0tdfhMnmmfjnnMffq71>:>112212<22<11<122<<----kkxlzzzzzxzllzbvlzl00ttghhnmjdjvjhfdd99>:<111111<21<<222111---##",
"pakkkxzllxzzzzcbzzk00qqdhhhdfhftrttr7q9>>,---<<-<<<<1<<<-<----#@apkaklkkllzzzzcccla32tqdhfgfgffd0ttq991>1%--<1<<-<<<<---------#+",
"4uuuiiiiikkakkkzkr034qqqdgggfttr0qq976911&@%&,,<<<-<---&&&--&#++yuyuuuupppsaaaaki04:3q0tdggdteqq0qq79q6>6&+%&3<<3-<-------=&%$+O",
";uu555uuuuuuuuu5534*&qqqtdttqqqqqqq97q946%+$%&%&--&&&%%##@#+O+OX;y5y454uu0uuu544433@&qqqtdttdqqqqqq000961$+$$$%%%&&&%$##@++oOXXX",
"+#**=**%*3,==**$###+#<<17000992561421>3:$+$+@#@@@++++X.   .XXXX+O@#%*$###*&%*$##@@++$<<12005424211111,>=#@%$$$#+#@++o...oo@#@@#@",
"rrqq991>#O&&&&&&----<<<11721<<%o+=5upkkkkklllaa0p53@X*0shzBBnzhkkdtt0041$+&&&&&&&:3<<<<117221<$X@3yisxxxzzczzlkssp3@#rMBVCHHCVBj",
"Bjhhdq992&-<<<<<2122222w7w7ww2-.uxcZZAFZZAZZZDDYTFx3rPPPPPPPHHCVjjjfdq096&><<<<111227277ww7ww2-XuxxFcZFbZFZZZFAYYDx5BIPPPHHHHCCZ",
"Bzhhdq961<<<<127222ww2w2777722-#xxZZzzxccZZAAZAFZZx0BHHHCHCCHHCCBzhhf761><<<12272w227777727271&#xcFNzxzzccAKAZFFZZlaCHHHCHHHHHCC",
"CVBChq1<><11127722221121222222-;NFZczkkkcAAAAZZZZckpVHHHHHPPPPHHHVVGj91><<<112w22222211112222<%-FFccxkskcbKAZAbZbcstVHHHJHPPUPHH",
"HHHJVq1:>>112272221<11111111<--;FFFZlklzzvbZSZZZczkpBVCHHHHHUUHHHHHJVt1><<122222221<1<112<222<-;FFFcxkzzzbbbZZZZccaaVVCCGHGHUPHH",
"HCHHVd21>>11272221<<<1<-11<2<<--NFFZcvzkzbAAZZZZxzkuvmVHGVVHHCVVHCHPvt6>>>11272221<<1<<<122<<<&3cFFZbbllzbAAZZbbczkiBBCHCBCCGCVC",
"CHHHBt1>><11222211<<2<-11<1<2--;xcZZAZzlzbbbbZbbcckiznnCVVVVCVBCCHCHVq1>:11222222<-<2<-<<<<1<<&<xcbFAbxxzcbbZbcccckaMnBCVVVVCBBC",
"VCCPvq1>::12222221<<1-<2<111<---xxcZZZZbccbccbcczclahMBVHJHGCCCVVVCPjq>>::1122211<1<<<-2-222<-&;xxcbbAZbbccbccccxzlahhvGJJJJGHCV",
"CCCnd0>::12222111<<<2<<<<<1<-<--sxxzbZZbczzcbbbbbbk0tgMVHJUULJGCCCVBqq>>::22222111<12<<<<<<<<<&&kkcbbbbbczzbbbbvAckqdfhVCHUUJJCC",
"mvffq96>:>111211121<<2<211<<&<**skllczzzzlzxzcvvzzkueddhjjmVjdjVBhfdq91>:<111211111<111<2<1---$&skxlxzzzzzzxxzvblzluqqdlhhjjhgjj",
"ttd8971>>>&<<<<<<<<1<<1-<<<<&&$*pakkkxlllzzxzzcczza19rqdzfhgffgdrtdqq96>1&-<<<<<<<<<<<<<<-----##iakkklllllzzzzcczli4qqqdhfgfffdt",
"6qq7q96>2*+--<<<--------&&,&&%++uuuuuuiiiakaaksxiu5=1qqqdffdgtqq0tq796111%@%---<--<----&----%$++y5uuiiuupiiassssiu4,9qqqggddtqqq",
"qqq97q997$+#%%%-----%--%%$%$+++X3uuy9uu0uuuuuur5444#:tqqtdtttqqqqq77qq996$+##%---&---%$*###+++O+3yyy555uuuuu055441,#>qqqqdtdqqqq",
"76661<<3#+#++@@###+++oo       XXO@######===*##@++++X+-&<9700909449222<-%@O@+@@#@+++++o..  .XXXXOO@+@@*+@#;%##+++++oX+$%&11242113",
"*&&&-##$$%&--%-%###@o.+#*;;3334333;*$#*@XX+*;5yra00552520552>$@&&&&&%%%-&:<<<-<----+o+#;3yuuppipiuy3333#oo+;yrsggstrrr0r0961>++&",
"<<<--<1211122www7w2-o;ssxSFFbFAAZFFFFFZk;3VPPPIPPPHCVBBMfdq791$<<<<<<<122272777ewe2%XyxxZFFZAFAAFFZFFFFa;yHPIPPPPPPCCBBhzdq99>&<",
"<<<<2222w72www2w2w2-+pNNZNNxFbbbNZcFFFFxyCPHHCHCHCHVBMhhhdq611<<<<1227w27777w7w7222-@xxSczccbcbAbFbFFFFkyVPCHCHHCCCVBnhghdq111<,",
"<<27772222222222772-#NSZNxlklzAKAAZAAZbkpBHPHHHPPHJHCCBMmf0>1>1<<127222222221222221%*FFcclkskzbKAZZZZbckaVHPHHHPPPHHHVBBmf76>>1<",
"112721111111<2<222<--NFSNzkklzbbZZZZZcckpBCCHHJHPIUHHHHHJBq1>><<122722212<<2111221<-3FFZZxkkzbbbZZZZcccapVVCHHHHPUIPHHPHJVq>>>:1",
"222772211<<<<<2212<-;NSSZzxzhlbKAZZZZcckuBVCCCVVHJHCCHCHJBt1>>><2227222<<<<<-22<11<&3ZFFbzczllAAAZFbbczkrBnCCCVVHHHVCHCHJBq11>:1",
"1272211<<11<<2<<1<---NNSFZblkzbbZZZbcczlphBBCCBCCCVBCCHHJBq2>>>1122221<<-2<<<<1<1<<*4NcZFAbllzcbZZcZcczkpMnVCCBVCCVnCHHHHvq1:><1",
"2222211<<<<-1<<1<<<&=xxNZZZZbcccbcczzzzlphnBCGHGVVVVCCCVJjq1::122222111<1<<<<<2<<<<&<xxZZZZZccccbccccczkizjnCHHCCVVVCVCVPMq>>:>2",
"2221111<<2<<<<111<<&&kxzvZZbZbczbbbbcbckpdhhCJJUUPPCVVCHCt9>::>12221111<<1-2<<<21<<%;kkxvZZbZvzzzAbbbvckudhjCHLUUUJCVCCHnt9>>:12",
"2222211<122-1<<<<<<&*sklzbvcczlllcbbbvclurdfvBBHJGnmVVnhfq96::>11221111<<21<<<<<<<-%-kkxzvcczzlxzzcvbzzkuqtghjBGGmjVmBnhgq71>:>1",
"2-1<1<<<<<11<11<<-&%$asxkxlxzxzzclzbczzl0qqqdhhhgfdhgdddq791:>:,<1<1<<1<1<<<<2<<<&&#*ssxkklzlxzzzzzcczzi1qqtdhhhfggfdtdqq771>1,&",
"--<<<<-<<-<-------&#+yppapkakkklllllcxk039qqtghgggdtq6qqqq9611%$--<<-<-<<--------&%++pypuaiaiakkkkklzaiu,4qqtgggfddqq7qq9q74>1%$",
"#%--<<-<-----&%&%%@OX5uuu0uuuuuiiiiip044=1qqqddtteqqqqq0999649$@#%&---<---%---####+++yp55uu0uuuuiiuq9y4>$<qqttdtdqqqqqqqq9q066$+",
"+@#%%%%%%##+oXXX.XX.X#;;=,=3=355433==&**+%990qrwqqqqqq769661>$OO+@#@#$#@#++o.. . ...X+#;**&%*=33,=**%$#@O%4270re07q009q6611<:$O@",
"@##++@++oo.o@%*<3<333--<3<==&#+%*%%%$$%$&&-3<271<<,&$$*344y9yy0yyy53-;&*+oo+;;55rry525114133=$+%%%%*%%*&&&<<<12213<%@@%3495uuiui",
"xxks0ap5%#sCHPPPPPHHCVBhjdtqq1%&<<<<<<11222222ww777<X#psxNFFZZFZAZDZDFZx3%MHPPPPPPHHCBnMfftqq6%<:<<<1<2222222www7w7<X*skcZFZAAFZ",
"ZZDDFTFS0sPHHHHHHHCCBBhhffq96><<<<<11222w22wwww2772-+pNNFNzcZbZbZDZDYDDc0kIHHHCHHHCCBBzhhfq6>1<,<<<122222w2w2w2w7w1-+axNZbcxbNNZ",
"DAAZDSSxazHHHHHHHHHHHCBvjjq9>>><<127w27222221222771<#sFNczlkszbKKAZZAZvxpMHHHHHPHHPHHCBMVjq1>>1<<<27w22222222222221<*xFSNxksklZA",
"CAZZZZNzrlCHHHHPJUUPHHHCHCd1>>><<2272221<2<21112221-*NFSZzkklzbbZZZZZbclpMVCCHPHPUUPHHPCJVd2:>><1227222<1<11<2<222<-*NFFZckxlbbb",
"bSZZZZczukVCHCCVCPHCVHCHJCg91::122222221<<<1<<2211<<&NFFZczczkbAAZZZZcclrlVVCCCCCPHCVHHAJCd9>>:<2227222<<<1<<<<211<-&NSZZccczkvK",
"AAZZZczlpgnBCCVmCCCVVCCHJCd6>>:12222221<-22-<<<<1<<-&xNNZAZzklbbZZZZccclphBBCCVVCCCnVCHHJCd91:>12122221<-21--22<11--&xNSAAbzkzzb",
"NNZcccczasnnVCCCVCCBCCCCHHq6:::12222121<<<1-2-<11<--&kxNZZZZvbccvczzczcxagnnVCCCVVCBCCCCHGq1>:>12222111<1<<<1<<<2<--=kccZZZZbbbb",
"cbcxzzzxathMmHPUPPPCVCVHGhq1>:1122212<11<2<<<<<12<<-*axxbbZZbbcccZvNcZNkathzVHPUUPPHVVVHGfq1>::11222211<<1<<<<<221<-*plzcZZbbbzl",
"zvvvbbbziqdghVVGJJGmGCVnhd71>::1122211<<<11<1<<1<<<&$akxxvbzccllxzvbbvbliqtlhBBGJGjjGCVjhqq1>>:12221111<<11<<1<1-<--#akxxcbzzzll",
"xxbbvzbla0qqdhhhhfdfhffdd0991>>,<<1<<<111111<1<<<-&%#raxlllzlxzczzzzblzk04qqdhhhhfghhftdtq96>>:,<<<<111<1<1<<<1<---%@pskxklxlzzc",
"zzzcczzku4qqqgfhggddt0qqqqq61>,#---<<<<<<<------&,&$O4ppapaaassxkkxxzlk03<qqqfggggdqq7qqq97611,@---<-<<<<-<&--*,---#+4ppupaiaaak",
"aakklku5>3qqqtdddqqqqqq0679666&+@------<----%%--*$@+X4uyu9uuuuupiaiiiu94>*qqqddddqqqqqq099q969:O##--------&&&&%=$@+oX3u00yuuuuuu",
"uyy43333*@42qqqqdqqqqqr799721>#+o##$$%%%$@+OoXXXXXXXX+*==,33=3333;=**$%$++1290qdtqq7q00q7772<-@#++@##$%$#++OX.. X.X.X+*%**;=*=34",
"555533-&&*<:311>-<1<<<<<>1-&&%%-%##@##+++@#**;==;;=;;*###@+XX+-;3<44,===-3<311>,&1<<<:,,<-&&------%#$@++@#*;33y334y53=***#X#5gMB",
"HHJHCVBnjhhdq96<@&-<<&-<<<112277wwww7&X%pkxSZZZFZZSZSZZFca=#gCHHPPJHHCCBjjvdqq9>#&<--<<<<11212w2www77-X=skNZFZAAZAZZSSDFSs5HPPPH",
"HHHHCCVvhhfgq991<<<<<12217777777w2772&OacNZNSNZNZZZDZZFFFcyxUHHHHCHHHVVjzffd0911<<<<<1122w22w22w777w2&OsxSZNcbbbSNZDZSFFDkxHHHHC",
"HHHHHHHBjhnh061>1<<127722222222272222-#xFNcxlklzbKKAAZAZNxpBHHHHHCHHHHCVnMnh991><<1<22w22272222222222-#NFNcxxskzZKKAZZFZZkgHCHHH",
"JJPUUJHHHCHBt1>><<1172722<2222<22222<-*NFZbxkslcbAbAZZZbNk0nCHHHPPPUUPHHHCPnd>:>><12w2222111<22<1222<-;ZFZNcskzzbZbZZbcbcslVCHCH",
"CmHJJCHHHHJCd1>><<222722222<-<<21211<--FFFNxlzzlbbAAZZZcxxpvVVHCCVHPPCCHVHHVd1>><11222222<<<2-<<1122---SFFZzzzllbAAZAFbczskBnCHV",
"VCHCCZVCCHPBd6<><<2272212--<2<-21<1<<&-NNFSZvlkzbAbZZZcczkrzBVCCBVCCCBCCHHPVt2>:111222221<<1<<<211<<--;NcZFZbllzbAZZcccczkdBBVCV",
"VCVVCBCCHCJGq9::<2222222<<<2<<2<<<1<&&-xcZZZbbbcccbcccccclqznBVCCVVVVBCCCCJCq1>::11222<21<<2-<2-<11<---NccFZZZbczbbcbczzcllhnBHH",
"PPPHHHVVBHHf01::<21222<<2<<<-<<-<22<<&&kxxbZAbbZzccbbzbbclrdhjVHPULJHHVVVHChq1::<22222211<<<<<<-<11<---alzzZZZbbzzbbbbbbcktdgMCH",
"GJULGmCCCBvt91::<2222<<22<<22<<<<1<<<&*kklzbbcczlllbbbbvckurdfjVCJLJmmHVVnMt91>>>1222112<<<22<<<1<<<--%skxzbccczlxlzvbvbzlaqqfhj",
"hjhhdhjhggdq9>>><-2<2<2<<2<<<2<<21--&%*pklllzxzzzzzzzvzxzl00qqdhfhhhfhhfddr796>>:<<<11<<111<<2<22<---%#palkllzzlzzzzlbclzk0qqqdh",
"hfggddq0qqq9q61>,%:,<<<<<-<<&<<&-<--&$+upaaassskklxzxzczk0,4qqtfgggfgtt9qqq996>1&#&<<<<<<<<<<,,&--<&&#+0ppapsasaklllxxzla05qqqtf",
"gdddqqq0q0779617&+$&&<-<-<<,&&&&%&%$@+X5u5uuu0uuuippiiiu55,,qqqtgddqqqqqqq90q997&@$%&--3-,,,&&&&#-%#+OXyr5y0uu0uupiiup0uy4,0qqqd",
"qtqqqqqq0q07961=++O@##$$$$$#@@+Oo+ooXXX$333,333;4y4443=***O$090qqqqqq07qqq7711<&OO+@@#$$$$#+++OOooXoXXX*;3;<,;=33443;;**%#O*&=>9",
"5611<:,,:&<270q000422520233&$XO$#$%%%%&&&&<3----&&#+OO*=3yyuatkkkaauqq43&%39qtsttdr007wr911>%X@$%%&%%&&&--<<3<<-*&*+X@;;4upaauaa",
"xxsatpu;+rZHHPJJPHHCBBhhfdq99,&1<<<-<22212277www771+OpxccFFZZZAZZZZZDDxu@gCHPPPPPPCCVnMhhtq79,&<<<<1<<1222w2wwwwww1+#sxcZFAAAAZZ",
"ZAZFTYSa0PPHHHHHHHVVBMhhft961><:<<122222777w77w2771+3cxFFclcZZbZAADFDDZaqJHHHHHCHCCVnzhfht91>1<<<1127777222ww2w272<@4NcSczczcZZZ",
"DAZFFZZasCHHHHHHHPHHCBMnjt91>1<<122222222221222272<@uFFczkkklbKKDAZZZZxaxHHHHHHHPPPCHBjBmt91>><<127272222222122272<$pFFNxxkklbAK",
"AZZZZbxasCHHHHJJPUIHHPCHJh6<::<<12ww22<21<111122213*aYFcckklzbbbZZZZZbxrkCCHHJHJPUIHHHHJHf6>:1<1227721112<<1<12<11<$sFFNckllzvZZ",
"ZZZZbcxiaGVGCCVVHPHVHCCJHh01>:>12222221<<-1<<1111<<%kFFFxzzzlzbKZZZZbczikVVCCCVCHHHVCCCPHh71>>11222222<<<<<-<2<21<<%aFFFZzbllzbK",
"AZZZbcxaavVCCCVCCCVBCHHHHf0<>>11222222<-12<-<1<11<<%pZNZAAzkzcbAZZZbcczpdBBVCVBCCCBVCHHHHf0>>>1112222<<-22<<<2<21<<%pxcFZAxllbbb",
"NNcNbczatjvBCCCVVCVVCCHCJg9>::11<22222-2<<-1<<111---uxcZZZZZbcccczxxcczakjjBHCGCVCVmCCCCJd6>>,112222221<<<<<<<11<<-%pccbZZZbbcbb",
"vbcxzzzkafvBHJUUPPHVVVCHjq9>::122222<2<<<2<1<<121<-#ulxzZZZbbczcvAvbcbzarhhBHJUUUPHCVVCHhq9>::112222<2<<<2<<<<<1<<=*uklcZZbZbczc",
"cBbbbbza0tghBBGJJmmGCVvhdq9>::122222211<22<<1<<<<-&$5xkxzvczclllzzbbbzli0ddhjBmHHnnCVVnhd96>::112211121<121<1<1<<--#ukxlcbcczlxl",
"zzbbzbza0rqthhfhfffhftddq991>:<<<1<<-<11<<2<11<<--&@5skllxxllzzczzbzzzli4qqqhhhfffgfdtttq9911<-<<<<<<<1<<<<1<<1---&+4kaxkllzxzzz",
"zzzcbzlu5qqtdgggggdtqq8qq991>>#%--<1-<-<----&&&&--$+&puuipaakkkkklkzlau4:0qqdfggfdtt00tw9q91>1@$--<--<<<--------&&$O=iuiiiiaaakk",
"pkakki04,0qqqfddteqqqq9q999691+@#-----------%&%*#@+X*puu0uuuuuuuiiiiuyy>%qqqtdddeqqqqqq7q9926>+##----------%-##%$++X*i55u55uuuuu",
"uuy4333*+3797qqqqq0qqq797072>#++@#######@++OOXXX.X.XX*=*&*===;34>3**###oo-1527tqqq99q9779211-@++@##$##@@++OXX...XXXXX#*******=33",
"#@#;-3<<-;<<10qw794<%&<:3&%$$$&&-----&%#@++X.o@*;;454;344=*#**@OXX@=;<5525<450rq0961%%,<>&%%#-----<-----$#+XX+*;45yyy4y553;--=#X",
"#sVCHHPPPCVBBzhgqq79&$--&<<<<<11222277ww77&X;ssNSSSZSZAZZZZFFci=-ZHHPPPIPHCVnMhhdq99>$-&-<><111212272wewe7&X4xxNZFZAFZFAZDDDFZa=",
"BIPHHHHHHCVBnhhhdq662-<<<1<2227722ww7w7772%+sNNZNxNNZZZZDZFFFFxyBPHHHHHHCCVVhhhhdq911><<<112222w7772ww2272*+xxZZxcZcbbcZDZDYFFx0",
"VHHHHHHHHHHCVMMnf71>>1<1127277272222222272-*NSZNxkkkcAKKAZZFbbkiVHHHHHHHHHHHVBMBf71><<11127272222222222222%;NFNNzkkkzAKKAZZZccku",
"CCHHHJPPUIPHHHCHvq1>>>11272w2111<22<22222<%;FDZNzkszvbbbZZZZcckuVCHHHHJPUIPHPCCPBq1>:<11277211<111112<222<%3FFNNxkllbbAbZZZZccku",
"BVCCCCCHPPCCHCHHmd1>>><1222221<<<<<<<22<<<&4DFDZxzzzzbAAZZZZczkiBVVCHCVHPHCCHCHPmq1::<1127272111<1<<12211<&4FFZSzzcllbKAZZFccza0",
"MBCCCnVCCCBCHCPHBq1>>>11272211<<2<<-2<<2<<-3NNSSAblkzvZZZZccczkiMBVCCBVCCCBCCHHHvq6>:111222211-<2<<-1<<1<--3NZZZAbklhbbbZZcbczki",
"MMBVCVVVCVnCCHCPjq>::<112222<<<<1<<<<1<1<-%3xxZZZbbccccvbcczzzkihvBCCGCCVVBCCHVPjq>>>>12222<11<<<--2<1<2<&&3xzZZZZZvcccbxczzzzlu",
"hhnVHUPPJHCVVVHCdq1>:122222<2<<<<<<<<122<<&:xxzcZZZbZzxbbbcbbckighjCJLLJPPCmCVHVd91>:>2222211<1<2<1<<<<2<<&3kkzcZZbZZzzcAZbbbcku",
"rdfBVGJLJGmCVmBhqq1>:>222222<<2<11<1<<<1<-&=kklzbbzzzxzxbvbvbzkutdfvBCJJHmmHVVMgq91>::212212111<2<<<<<<<<<%;kkxzvbzzzlxxzvbbczku",
"qqtfhhhjhdjhgfdtq91<::<111<1<22<1<1<11<---$*skxxxzzzxzzzlbvzzlk47qqghfhhfdhfddfeq91>::<<<<1<11<<<12<22<-&&#&ksxklxxxxzzzzzvzlza5",
"9qqdhhgghftq9qqq996>1&$&<<<<<<<<<<<&-&&3-&@@puaaaaaskkllxlzzls0:9qqdghgggdtq7trq9q1>1&#----<<<<<-<-------*+@uuiaaaaaaskkxxzcki5,",
"4qqqdddttqqqqqq979916$+%%-------&<&&&&&%#+X+5uu5uuuuuuiiauui544*<tqqddttqqqq0q069q666$+$-----<&--&&&-#%#@@O+yu0y0yuuuuuauu00954=",
"&q7qqdqqqqqqqq97q9993@@@#$%%%%-#$++OOOOOOXX+*333,333334433;&==*+&00qqtqqqqq9qqq97992*+#@#%#%%%$#@++OXXoXXXXX#;;;;==,34333==***$O",
"+@#%:311<:,&:&:&&@$@o++++#+@@@+oOXX.X.XXXOX+oXO++Ooo@@@++++OOXOO++@$&&<3=:&&%%&&$@+++++++++@+++++XXXX.Xooo++oX+X++OO+++++OX+OOOO"
};
