/* XPM */
static char *result[] = {
/* columns rows colors chars-per-pixel */
"32 32 46 1 ",
"  c #2D1501",
". c #341A03",
"X c #3B1D03",
"o c #3B1F08",
"O c #3E2004",
"+ c #3E2009",
"@ c #421E03",
"# c #442304",
"$ c #4A2604",
"% c #4D2904",
"& c #43240A",
"* c #4B270A",
"= c #4D290C",
"- c #512707",
"; c #512C04",
": c #532B0A",
"> c #5A2E0A",
", c #57310D",
"< c #5D320C",
"1 c #4F2C10",
"2 c #522D10",
"3 c #563112",
"4 c #5B3313",
"5 c #62350D",
"6 c #65390E",
"7 c #6B3A0E",
"8 c #703E0F",
"9 c #623614",
"0 c #653915",
"q c #6B3C15",
"w c #663B18",
"e c #6C3E18",
"r c #713F10",
"t c #703F18",
"y c #6F4011",
"u c #6E401A",
"i c #744211",
"p c #7B4512",
"a c #7E4913",
"s c #74431A",
"d c #79471D",
"f c #7B481D",
"g c #844C14",
"h c #884F15",
"j c #875016",
"k c #8A5015",
/* pixels */
"5iq5-X##$%X100e3<ii6-O##%%O2wwu4",
"ahgh<#;%#%*sesdeajgh>#;%#$$susdq",
"<pir:@$###.4qwe4<pi7-#####.4e004",
"=<%$$XXX.oo==&>=%>=$%.OO.++=&,0<",
"p5O%%%;#0esdwyhha5@%%$%#0tsdeikk",
"h5#;%#$#0sesq7agg5#:%#$#wsese0gp",
">-XXOX. &4442*65>-X.O.X &434:%<>",
"2944=:65>*X##$-#:099=,q6<*XO##%X",
"desdeakhh<$-%$$#sesdqpkhh>#;%$%#",
"0eet95pir-####@X4eqe95pir-#####.",
"****#$<%*:&#oX@.=***O$<$*:&&++#X",
"i>X$$%%&ewsd0ihgp:X$%$%&eesd0pkg",
"h:$-$$%#ustsqiggg:$-$$%#usts0iga",
"<-XXOX. =444=:76<%XXOX. =>44=:55",
"####X+==31=6<<:#####X+2342:055:#",
"%%$%#qssftikkk6@%%$;#ussfeihhh6@",
"%%##X4tqtq5ppp>@$###X3twtq<ppi>@",
".X.X.+:==&$<:%:&X#.X.#=**&#<:$:&",
"u06gai5@#$$%#2eeseqggi5@#$%%#4te",
"duqggj7@-%$%#0sssqqggh7@-%#%#0st",
"99:676>@O#XX *4493*775:@O&XX &44",
"q<:-#$%##.==22&<6<:%#%%##.=223:q",
"hha-#%%%%=fufdqhkkg-$-$%%=dqdduh",
"ppi$#%###&eeqt46ai8$@%###&eeqs<7",
"<:--X#XX. ==:=*<5>:-X#@X .%====,",
"s0rggi>o#%%%&4qus0qhgp>@$%%%#4eu",
"serhgh5@%%&%#usssqiggg<@%%#%&esu",
"03:765-@O#OX =440:-755-XO#O. =44",
"<05<-@$@##.+144::05<:@###&.&:442",
"gkhg>@-%$%*stsdwakjj:#;-%%*susde",
"6ppp:#%$##@wtwt06aii:#%###+0ees9",
"-<:-%..X.  &*1=O$<:-$....  &&*=o"
};
