/* XPM */
static char *result[] = {
/* columns rows colors chars-per-pixel */
"64 64 63 1 ",
"  c #1D0C00",
". c #210F00",
"X c #261101",
"o c #2C1502",
"O c #2F1804",
"+ c #311703",
"@ c #341A03",
"# c #3B1E03",
"$ c #351B08",
"% c #3B1F09",
"& c #3E2004",
"* c #3D2109",
"= c #451E05",
"- c #481F05",
"; c #452304",
": c #492505",
"> c #4D2904",
", c #44240A",
"< c #49270B",
"1 c #47280F",
"2 c #4D290D",
"3 c #512706",
"4 c #522B05",
"5 c #582F05",
"6 c #522708",
"7 c #542B0A",
"8 c #5A2E0A",
"9 c #583005",
"0 c #57310C",
"q c #5D310C",
"w c #4E2B10",
"e c #542E11",
"r c #592F11",
"t c #563112",
"y c #5C3313",
"u c #63340C",
"i c #68370C",
"p c #65380E",
"a c #6C3B0E",
"s c #713E0F",
"d c #623614",
"f c #663916",
"g c #6B3C16",
"h c #653B18",
"j c #6D3E18",
"k c #713E15",
"l c #723F18",
"z c #76400F",
"x c #79420F",
"c c #6E401A",
"v c #744211",
"b c #7A4612",
"n c #7D4913",
"m c #74431B",
"M c #79451B",
"N c #77481F",
"B c #7A491E",
"V c #7D4B20",
"C c #804611",
"Z c #834C14",
"A c #8A4E14",
"S c #8B5116",
"D c #814E21",
/* pixels */
"O<0q077<:;+@#@##&;&&&oO,tyttewe$O70fq0092-+@###&;:;;&oO2yydyyyt&",
"vSSSSZvvu2;;:>>44>94>@yNccNBNVVyvSSSSnvvu6;;:>4>>4444@hNccmNMBVy",
"vnnZSZnZa--:>4>:::::>&NNfdgmmmjyvnnZSnnZa:=:>4>:;::>:&NNhdjmmmjy",
"annnnbnAa:-:>>:;;;;:;&cmmggmmljyvbnnnbnAa:=>>>:;;;;:;&hNmgjvcccy",
"qvCAZCbbu-;>>::::;;:;#djmvggjllyukCAAnnvu--:>>>;:;;>&&ycmljgllju",
"7uasaauu4:=;:::;:::;&@rhhhfhjlje4uasppuq6>-#;:;&>;;;&Othdfhhgjge",
":5qu877763#X@@@&#oXX. %<:<ew22,@;78q88854>&XO&@&@oXX. *,,12<22<@",
"<077:;:;=;&&&&&o.$11w2222%o<77026788;%;;&&&&&&&o.*1eeww2e%*vvbvg",
"bai6;&;::>44449&1mmmmNBVDgdSSSSAnvi>:=;:>>44>99&1VmlmZBVVgkSASSZ",
"Cnb6;;>4>>:;:>:&hVhdgmmmmygZZZAZnZx2=;:4>>::>;>&hVgdfmmmjdgnnnSC",
"nAC6=:>>>;;;;;:&yVmgglmjcdivnbnnCZb3=:>>>;:;;>;&yVmjjlljjdpbCZnn",
"nns:=:>>:::;;::@7gmmkflkjhugnAAbnna>=:>>:;:;;>&&egmllfjllhqpbZCx",
"pi73:;:>;&;>>:&&2hhhhghvjy6qpvaiid8<--:::;;:;:;@1fffhggjjy6qppiq",
"876>;Xo@&&&OoXX @212eee76,&7qp9q843>=Xo@@@&OXXX O11<w7e22*#:7873",
"%277<,,*&Oo*,<,,:<,=+@@@@@&:>>:&%7rt27w12$o,2422:>:=o##@@#&&&;&O",
"tccmNBBNVyvSSSSnvau6;;:>444>44>OymjmmBBVBqvSSSSnmku<;;:>>449444@",
"VmhdgMMmmybZCZSZnCa--::4>:::>>;&VmfdlmmmlybnCZSZbZa;;::4>::;:>;&",
"mmlhgmlljygnnnnnZSs--:>>:;;;;;&&jNljjmmjjygnnbnbCAg-;:4>:;;;::&&",
"hjmmjgjjjyuzZSZbnnu-;>>>:;:;;>&&djlljgjljyivZAZbCbu-=:>::;:;;:&&",
"yhjhggjlvy7uazsipu4:;;::::::>;&&yfgfffgvj84ussaaiu6:-;::::;:>:&O",
"12w77yy77,<quuq9873:#X@##&@OoXX ,<wweeee2#:8qu98742:#.+#&&@ooX. ",
";<,=$%##@@&:66>&=6r7<1<;,OX&,<<;1<,#@#@@@@;:4>>%=7ytw6w1,OO<2042",
"kau3;;::>44>44>OtmmmMBNVByvSSSSZvsq6;;:>>43444>@yjccNBBZBynSSSSn",
"nnd-;:>>>:>>:>:&VmddlmmmcyvZZZSZnCi-;::4>::::>>*VVydlmlmcynZnASn",
"CSa:::>>:;:;::;&cVchjmmlgyanbbCnZZa--:>>:;;;::&*cmmgjmmjgykbbbnb",
"nnu:=>>:::;;::&&ycmmjjjgjdazZAZCnnu-->>>:;;;;:&&hjmljgjjcyivAACn",
"au6:;;::::::::;@yfhgghccjy7issagiu6:=;::::::;:&&yhghgggmc08uasai",
"8866&o@&&&#@++X.<ww7ty7e2@:8qu888776#X#####@OoX ,222e7t2<#<8uqq8",
";;##@@@@OoX.X$$$%$$$o$*;,#;<73:;:;&#@@#@@o.o$%%=,%*$X&*,<&;>>6;#",
"%;::>>444&$hcmmmNmNh7nZAZZzgi7;#&;:>44945%*cmmmBVmVg0ZASZZbgi6:%",
":444>:>>>&0VhygmmMNggZZZAAnnz3:;:4>>>:>>>#eVgyfmmmmhgZZZSAZbb3=:",
">4:;;:::>&tNmjhmmmldunnnZnnZZ6-:>>>;;;;::#yVVgfmmmjddbnbnnnZb3=:",
">>>:;;;::#2jmmjjljjgyznAACbZb:=:>>::;;;::&2cmmjgjjlhdaCSAnbCv2=:",
">>;:::;::#<fgggggllh0qabxsgp83-=>>:::::;:@2hfgjgglld7qavssgi96-;",
"&&;&&&&@@.$reerdyyy7:8uuqq8866:o@&#&&&@Oo $e7eeyyr0<;8quu88843-o",
"oooOXXo$$@@,,,%%,%$@@:>93:=:67<%&##@XXo&*@#:,&#$%$@@@:>43:;;76<,",
"cfcy;vZZZCvai7:#=;::>>>49;OyjmmmbNBc<bZSSZbgi8:#;;>>>>>44;OhjcmV",
"NNBcfAZZASnnb8-::>>>>>>>4&tVjdhmmmNgfZnZAAnbx7-::4>>>>>>4%eVjdfl",
"mmmfynnnCnnZZ8-=>>>:;;;::#0Vmgfmmmcd0vnnZbbZZ8=-:>>:;;;;:&eVmgfl",
"vccfqgnZAnnZb6=:>>::;;;;:&2hmmjjjcccyvnSACbZb7-:>>:::;;::&2gmmlj",
"gvlg8uaxnzzau3-;>>>:::;::%,fggghgllg7uavbksau>--:>:;::::;@,hhjhj",
"ddhy<7qiqq7873>@O&&;&&&@@.@rerryyyy2%88iu8884><+O&&;&#@@@XOee7ee",
"ee1;&<36:4>>>:=@OO@ooOoO+OO#$O@<<,%##:62>>::>:&@@@@oo@$$@@$*@$2q",
"nnbgpu6:&;&:>>>>49&OhccmmNmNh<vnZZnzau7:#;=:>>>494&@hcmmmBmVhhSA",
"ZSSCbv7:;:>4>>>>>>&tVcycmMmmhgSZZSSnbb6:-:34>>>:>>&0BjhgMmMmhvnZ",
"nZZnZZ7-;>>>;;;;>>@0VcgfmmmldubnnCnnZC7=;>>>;:;;::&tBmgdkmmjhann",
"ZZnbZb4=:>>>:;;;::&2cmmcgjjjhusCZZCnZb6-:>>>:;;;::&2jmmjjljjhdvn",
"bCzsgu6-;>>;:::;:;#<dggggjllg7ukbxzvau>-:::::::;:;#,dgjgggllg8qa",
"iuu8873:+@&%;#;#&@X&ttttyyhyw=78uu88q73:o@=%&=##@@X&0tttyyyy2;88",
"76>:<>76;%;;=#XXooXO**;;<*@%,,7yy082;677;&;:;%XXooXO*;*;,&O*,177",
"cjce0nZZZnvau6;=::>>>>444@,clmmmmNVt9ZZAAnvau3-=::>>>>9>4@1clmmm",
"NmVhvSZZSZbbs:-:>>>>>>>>>#hVfdkmmmVyvSZZSAbbs:-:>4>>:>>>>&cNhfgN",
"mmjddCCbZnZAb2=:>>>&;;;::&hBmhgmmljygbbbnnnAb:-:>>:;;;:::#hVlggl",
"ljjddvCZZbnCa:=:>>>;:;;::@yjmmjjlljfivCSZnnns-=:>>:;;;;:;#yjmmjj",
"jkkf8isbbssi8:=:;;>::;;;;@0hgjggjlld7usxssgp8:=:>>::::::;@ehgggg",
"fhf628uu888886-o&&&&&&&$O.,e7eeyyye=;8uuqq8546;o@&&&&@@@o =wweey",
"*,<<;>7886:::=@o@&&@oX XO@%,,*%$+%**;35986;::=@O@&&@O..X$$,,,=*$",
"unnZnvap82#&;;:4>>>4>otcmmmmmmm2uZZSnmag83=%;;>>4>44>+tcmmmmmNV7",
"ZZZZSZnbu:-:>4>>>>>>>&VmdhlMmVldnZZZSZnnu-;::4>>>>>>:*VmhdlMmmjy",
"vnnnZnnAa--:>>:;;;::&;cNjflmmjjrvnnnZnnAi:=:>>>;;;;:;<mmjggmmjgy",
"vvZZZbCZu=->>>:;;;::&;hjmljjljjdabZAZbnnu-->>>:;;&::;*hmmmggcljy",
"0pxCxkka3-;>>:::::;;;#yhjgggjkgr8isbzzap4:-;:;:::::;&#yhggggjljr",
"6qpuq88856;o&;&;;##&oo7yeyyyddr,6uuuq89846&O&&&;&&&@OXeeeryddye,",
"#:7766:::%oXoOOoX.    O$$$$%$OOX@-262:<:&&OXooOXX.    oO$+$$+OoX"
};
