/* XPM */
static char *result[] = {
/* columns rows colors chars-per-pixel */
"16 16 207 2 ",
"   c #774412",
".  c #7B4613",
"X  c #4D2707",
"o  c #472503",
"O  c #472402",
"+  c #512D0D",
"@  c #70401A",
"#  c #663A16",
"$  c #744312",
"%  c #7D4713",
"&  c #4E2707",
"*  c #472604",
"=  c #472502",
"-  c #683B17",
";  c #66370D",
":  c #4B2506",
">  c #432304",
",  c #3F2005",
"<  c #4D2A0D",
"1  c #613614",
"2  c #5E3411",
"3  c #64360D",
"4  c #65360D",
"5  c #4C290D",
"6  c #633714",
"7  c #673913",
"8  c #67370D",
"9  c #411F01",
"0  c #462502",
"q  c #3F2103",
"w  c #623816",
"e  c #71401B",
"r  c #673A13",
"t  c #814A13",
"y  c #68380D",
"u  c #401E01",
"i  c #462402",
"p  c #6A3C13",
"a  c #804912",
"s  c #5D320E",
"d  c #502B0C",
"f  c #4C2A09",
"g  c #502C09",
"h  c #562F0D",
"j  c #512B0C",
"k  c #512B09",
"l  c #5C310A",
"z  c #522C0C",
"x  c #4D2A09",
"c  c #512D09",
"v  c #562F0E",
"b  c #4F2A09",
"n  c #532B08",
"m  c #683C18",
"M  c #6B3C14",
"N  c #844B14",
"B  c #63340B",
"V  c #3E1E00",
"C  c #422201",
"Z  c #3B1E03",
"A  c #633817",
"S  c #70401B",
"D  c #6A3B13",
"F  c #834B14",
"G  c #422202",
"H  c #391D02",
"J  c #5B310D",
"K  c #492608",
"L  c #4C2806",
"P  c #512A07",
"I  c #5F3412",
"U  c #5E3412",
"Y  c #58310E",
"T  c #64390E",
"R  c #5A300C",
"E  c #472407",
"W  c #4B2705",
"Q  c #502A07",
"!  c #5F3513",
"~  c #5B330E",
"^  c #65390E",
"/  c #5F320B",
"(  c #432103",
")  c #5E3514",
"_  c #673A17",
"`  c #623510",
"'  c #7B4511",
"]  c #61330C",
"[  c #422103",
"{  c #3B1E04",
"}  c #663917",
"|  c #633610",
" . c #774210",
".. c #482504",
"X. c #442302",
"o. c #492709",
"O. c #633816",
"+. c #623715",
"@. c #6A3C10",
"#. c #744211",
"$. c #4F2807",
"%. c #452303",
"&. c #452302",
"*. c #4A280A",
"=. c #653917",
"-. c #633815",
";. c #6B3D11",
":. c #4F2707",
">. c #452405",
",. c #412103",
"<. c #643814",
"1. c #5C3211",
"2. c #6D3C0F",
"3. c #512909",
"4. c #462505",
"5. c #412204",
"6. c #623714",
"7. c #5A3111",
"8. c #63360C",
"9. c #6C3B0E",
"0. c #6F3F12",
"q. c #7F4913",
"w. c #512908",
"e. c #432202",
"r. c #432201",
"t. c #4B2809",
"y. c #6E3E1A",
"u. c #704012",
"i. c #512907",
"p. c #422200",
"a. c #4B290A",
"s. c #6C3D19",
"d. c #683A13",
"f. c #5E320C",
"g. c #5F320A",
"h. c #4D2706",
"j. c #422204",
"k. c #472609",
"l. c #4C2A0D",
"z. c #603613",
"x. c #643711",
"c. c #5C310B",
"v. c #5E320A",
"b. c #422304",
"n. c #4D2A0E",
"m. c #633813",
"M. c #7F4912",
"N. c #5C2F0A",
"B. c #3C1D01",
"V. c #452502",
"C. c #462507",
"Z. c #6C3E1A",
"A. c #6E3E19",
"S. c #683A10",
"D. c #804911",
"F. c #5B2F0A",
"G. c #3D1E01",
"H. c #452402",
"J. c #6F3E19",
"K. c #6A3B10",
"L. c #643712",
"P. c #67390E",
"I. c #64380D",
"U. c #472405",
"Y. c #3E2003",
"T. c #4E2A08",
"R. c #522D0E",
"E. c #653814",
"W. c #693A13",
"Q. c #683A0E",
"!. c #65380D",
"~. c #4E2907",
"^. c #532E0E",
"/. c #633716",
"(. c #6C3C10",
"). c #7A4411",
"_. c #452404",
"`. c #3C1E00",
"'. c #49280A",
"]. c #693C18",
"[. c #5F3514",
"{. c #6C3C0F",
"}. c #794411",
"|. c #452403",
" X c #3B1E00",
".X c #4A280B",
"XX c #724111",
"oX c #724010",
"OX c #4E2607",
"+X c #462403",
"@X c #6D3E10",
"#X c #734010",
"$X c #4E2B0D",
"%X c #643815",
"&X c #6B3A0E",
"*X c #482305",
"=X c #412203",
"-X c #3B1D02",
";X c #49270B",
":X c #653816",
">X c #67380D",
",X c #472305",
"<X c #3A1D02",
"1X c #48270B",
"2X c #633715",
"3X c #5B3112",
"4X c white",
/* pixels */
"  . X o O + @ # $ % & * = + @ - ",
"; ; : > , < 1 2 3 4 : > , 5 6 7 ",
"8 9 0 q w e r t y u i q w e p a ",
"s d f g h j k l s z x c v j b n ",
"m @ M N B V C Z A S D F B V G H ",
"J K L P I U Y T R E W Q I ! ~ ^ ",
"/ ( G Z ) _ ` ' ] [ G { ) } |  .",
"..X.o.O.+.@.#.$.%.&.*.=.-.;.#.:.",
">.,.*.<.1.4 2.3.4.5.*.6.7.8.9.3.",
"=.0.q.w.e.r.t.y._ u.q.i.e.p.a.s.",
"d.f.g.h.j.k.l.z.x.c.v.h.b.k.n.m.",
"M.N.B.V.C.Z.A.S.D.F.G.H.C.Z.J.K.",
"L.P.I.U.Y.T.R.E.W.Q.!.U.Y.~.^.6 ",
"/.(.).:._.`.'.].[.{.}.:.|. X.X- ",
"XXoXOX+X|.< } -.@X#XOX+X|.$X_ %X",
"&X2.*X=X-X;X:X7.>X9.,X=X<X1X2X3X"
};
