/* XPM */
static char *result[] = {
/* columns rows colors chars-per-pixel */
"32 32 47 1 ",
"  c #2C1501",
". c #341A03",
"X c #3B1E03",
"o c #3A1F09",
"O c #3E2004",
"+ c #3E2009",
"@ c #421F04",
"# c #442304",
"$ c #4A2605",
"% c #4D2904",
"& c #43240A",
"* c #4B270A",
"= c #4D290C",
"- c #512707",
"; c #512C04",
": c #532B0A",
"> c #5B2E0A",
", c #57310D",
"< c #5D320C",
"1 c #4F2C10",
"2 c #512D10",
"3 c #582F11",
"4 c #563112",
"5 c #5B3313",
"6 c #62350D",
"7 c #68370D",
"8 c #65390F",
"9 c #6B3A0E",
"0 c #703E0F",
"q c #623614",
"w c #653915",
"e c #6B3C15",
"r c #653B18",
"t c #6C3E19",
"y c #713F10",
"u c #703F18",
"i c #6F4011",
"p c #6F401A",
"a c #744211",
"s c #7B4512",
"d c #7D4813",
"f c #74431A",
"g c #79471D",
"h c #7C481D",
"j c #844C14",
"k c #884F15",
"l c #8A5115",
/* pixels */
"6ae6-X##$$X1rrt4<si8-X#$$%O4ret5",
"dkjk6#;$$%$ftfgtdkjk>#;%$$$fefgt",
"<sa0;@$##X.5ett5<sa9-####O.4err5",
"=<%$$XXX.&o=*&:=%>=$$XOX.++=*:w<",
"s6O$%%-#wtfgrijjs6@$%%;#rtfhtakk",
"k6#;%#$#rftfe9jjk6#%$$##rfufrejs",
">-OXXX. &545:=76>%XXXX. &445:$>>",
":q55=,86<%OO#$-O:rqq2,e8<%X+##%X",
"gtfhtdllk<$;%$%$fffhedlkk<#-%$%#",
"rteuq6sa0-@####X5eeeq6sa0-X$##OX",
"*=*=&$<%*:#&o.#.**&*O$>%-:&&+O$o",
"a:X$$%%+refgrakjs:##$$%&ttfgrskj",
"k>#;$$%$ffffeajjd>$;$#$$ffifeajd",
">%XO#X. =444=-77<*XXOX. =445*-76",
"##@#Xo=:42=w6<:@@$##X+2252=e6<:#",
"%%%-#rffhtsllk7#%%%%#tgfhtalkk7@",
"$$##X4frur6sss<@$$##X3utur6asa>@",
".O.O.&-==$$>:*-#X#.o.#=*=&#>:%:&",
"pw6dja6@#$$;#4ptft7jja6@@$$%#3uu",
"gpejjk7#;%#$#rfpfeejjk9@;%$$#wfu",
"qr=997:#O#XX &q5w3=996;@X#XX &45",
"9<:%#$%##.==14&<7,:-#$%##o=234:e",
"kkj%#%$$$=gpggejlkd-$;$%$%gtgfik",
"jsy$#$$$#&tpef<9dsi##$###&ttefq7",
">:-:@#X...=====,8:--##@.. %====,",
"uwyjja>@$$$%#5ppgrajda>@$$$%#5pp",
"ftujjj6@%$$$#pfpfeykjk6#;$#$&tfi",
"w3:977-@OOOO =5552-e7<-XO#OX =55",
"<766-##X##.+145=:w66-###&$.+2452",
"jkkj>#%%$%$fughedlkj>#-%$%&gpfht",
"essa:@%$##+rutfq7ssa-#%###Xrttpw",
"%>:-$.Xo.  &**=+$<:%$..X.  &&==X"
};
